<svg width="738" height="234" viewBox="0 0 738 234" fill="none" xmlns="http://www.w3.org/2000/svg">
                            <path d="M77.3804 184.581C77.3804 183.403 78.3357 182.447 79.5141 182.447H91.9921C93.1705 182.447 94.1258 183.403 94.1258 184.581V190.635C94.1258 191.814 93.1705 192.769 91.9921 192.769H79.5141C78.3357 192.769 77.3804 191.814 77.3804 190.635V184.581Z" fill="#E3E0DE"/>
                            <path d="M211.236 178.181C211.236 177.002 212.192 176.047 213.37 176.047H225.105C226.284 176.047 227.239 177.002 227.239 178.181V190.983C227.239 192.161 226.284 193.116 225.105 193.116H213.37C212.192 193.116 211.236 192.161 211.236 190.983V178.181Z" fill="#E3E0DE"/>
                            <path d="M344.414 160.044C344.414 158.865 345.369 157.91 346.547 157.91H359.025C360.204 157.91 361.159 158.865 361.159 160.044V190.636C361.159 191.814 360.204 192.769 359.025 192.769H346.547C345.369 192.769 344.414 191.814 344.414 190.636V160.044Z" fill="#E3E0DE"/>
                            <path d="M477.93 178.181C477.93 177.002 478.885 176.047 480.063 176.047H492.541C493.72 176.047 494.675 177.002 494.675 178.181V190.636C494.675 191.814 493.72 192.77 492.541 192.77H480.063C478.885 192.77 477.93 191.814 477.93 190.636V178.181Z" fill="#E3E0DE"/>
                            <path d="M611.305 184.581C611.305 183.403 612.26 182.447 613.438 182.447H626.241C627.419 182.447 628.374 183.403 628.374 184.581V190.982C628.374 192.16 627.419 193.116 626.241 193.116H613.438C612.26 193.116 611.305 192.16 611.305 190.982V184.581Z" fill="#E3E0DE"/>
                            <path d="M98.5913 129.484C98.5913 128.306 99.5466 127.351 100.725 127.351H113.203C114.381 127.351 115.337 128.306 115.337 129.484V190.636C115.337 191.815 114.381 192.77 113.203 192.77H100.725C99.5466 192.77 98.5913 191.815 98.5913 190.636V129.484Z" fill="#F6C263"/>
                            <path d="M232.108 96.7743C232.108 95.5959 233.063 94.6406 234.242 94.6406H246.72C247.898 94.6406 248.853 95.5959 248.853 96.7743V190.636C248.853 191.814 247.898 192.769 246.72 192.769H234.242C233.063 192.769 232.108 191.814 232.108 190.636V96.7743Z" fill="#F6C263"/>
                            <path d="M365.625 59.3925C365.625 58.2141 366.58 57.2588 367.758 57.2588H380.236C381.415 57.2588 382.37 58.2141 382.37 59.3925V190.636C382.37 191.815 381.415 192.77 380.236 192.77H367.758C366.58 192.77 365.625 191.815 365.625 190.636V59.3925Z" fill="#F6C263"/>
                            <path d="M499.141 143.503C499.141 142.324 500.096 141.369 501.274 141.369H513.752C514.931 141.369 515.886 142.324 515.886 143.503V190.636C515.886 191.815 514.931 192.77 513.752 192.77H501.274C500.096 192.77 499.141 191.815 499.141 190.636V143.503Z" fill="#F6C263"/>
                            <path d="M632.657 50.0468C632.657 48.8684 633.613 47.9131 634.791 47.9131H647.269C648.447 47.9131 649.403 48.8684 649.403 50.0468V190.636C649.403 191.815 648.447 192.77 647.269 192.77H634.791C633.613 192.77 632.657 191.815 632.657 190.636V50.0468Z" fill="#F6C263"/>
                            <path d="M119.802 87.4286C119.802 86.2502 120.758 85.2949 121.936 85.2949H134.414C135.592 85.2949 136.548 86.2502 136.548 87.4286V190.636C136.548 191.814 135.592 192.769 134.414 192.769H121.936C120.758 192.769 119.802 191.814 119.802 190.636V87.4286Z" fill="#7B8BF4"/>
                            <path d="M253.319 96.7743C253.319 95.5959 254.274 94.6406 255.453 94.6406H267.931C269.109 94.6406 270.064 95.5959 270.064 96.7743V190.636C270.064 191.814 269.109 192.769 267.931 192.769H255.453C254.274 192.769 253.319 191.814 253.319 190.636V96.7743Z" fill="#7B8BF4"/>
                            <path d="M386.835 31.3554C386.835 30.177 387.791 29.2217 388.969 29.2217H401.447C402.626 29.2217 403.581 30.177 403.581 31.3554V190.636C403.581 191.814 402.626 192.77 401.447 192.77H388.969C387.791 192.77 386.835 191.814 386.835 190.636V31.3554Z" fill="#7B8BF4"/>
                            <path d="M520.352 101.447C520.352 100.269 521.307 99.3135 522.485 99.3135H534.963C536.142 99.3135 537.097 100.269 537.097 101.447V190.636C537.097 191.814 536.142 192.77 534.963 192.77H522.485C521.307 192.77 520.352 191.814 520.352 190.636V101.447Z" fill="#7B8BF4"/>
                            <path d="M653.868 50.0468C653.868 48.8684 654.823 47.9131 656.002 47.9131H668.48C669.658 47.9131 670.614 48.8684 670.614 50.0468V190.636C670.614 191.815 669.658 192.77 668.48 192.77H656.002C654.823 192.77 653.868 191.815 653.868 190.636V50.0468Z" fill="#7B8BF4"/>
                            <path d="M141.013 17.3368C141.013 16.1584 141.968 15.2031 143.146 15.2031H155.624C156.803 15.2031 157.758 16.1584 157.758 17.3368V190.636C157.758 191.814 156.803 192.77 155.624 192.77H143.146C141.968 192.77 141.013 191.814 141.013 190.636V17.3368Z" fill="#E9067C"/>
                            <path d="M274.529 17.3368C274.529 16.1584 275.485 15.2031 276.663 15.2031H289.141C290.319 15.2031 291.275 16.1584 291.275 17.3368V190.636C291.275 191.814 290.319 192.77 289.141 192.77H276.663C275.485 192.77 274.529 191.814 274.529 190.636V17.3368Z" fill="#E9067C"/>
                            <path d="M408.046 96.7743C408.046 95.5959 409.001 94.6406 410.18 94.6406H422.658C423.836 94.6406 424.791 95.5959 424.791 96.7743V190.636C424.791 191.814 423.836 192.769 422.658 192.769H410.18C409.001 192.769 408.046 191.814 408.046 190.636V96.7743Z" fill="#E9067C"/>
                            <path d="M541.562 22.0097C541.562 20.8313 542.518 19.876 543.696 19.876H556.174C557.353 19.876 558.308 20.8313 558.308 22.0097V190.636C558.308 191.814 557.353 192.77 556.174 192.77H543.696C542.518 192.77 541.562 191.814 541.562 190.636V22.0097Z" fill="#E9067C"/>
                            <path d="M675.079 87.4286C675.079 86.2502 676.034 85.2949 677.213 85.2949H689.691C690.869 85.2949 691.824 86.2502 691.824 87.4286V190.636C691.824 191.814 690.869 192.769 689.691 192.769H677.213C676.034 192.769 675.079 191.814 675.079 190.636V87.4286Z" fill="#E9067C"/>
                            <path d="M162.224 101.447C162.224 100.269 163.179 99.3135 164.357 99.3135H176.835C178.014 99.3135 178.969 100.269 178.969 101.447V190.636C178.969 191.814 178.014 192.77 176.835 192.77H164.357C163.179 192.77 162.224 191.814 162.224 190.636V101.447Z" fill="#95D1FD"/>
                            <path d="M295.74 40.7011C295.74 39.5227 296.696 38.5674 297.874 38.5674H310.352C311.53 38.5674 312.486 39.5227 312.486 40.7011V190.636C312.486 191.815 311.53 192.77 310.352 192.77H297.874C296.696 192.77 295.74 191.815 295.74 190.636V40.7011Z" fill="#95D1FD"/>
                            <path d="M429.257 115.466C429.257 114.287 430.212 113.332 431.391 113.332H443.869C445.047 113.332 446.002 114.287 446.002 115.466V190.636C446.002 191.814 445.047 192.77 443.869 192.77H431.391C430.212 192.77 429.257 191.814 429.257 190.636V115.466Z" fill="#95D1FD"/>
                            <path d="M562.773 64.0653C562.773 62.8869 563.729 61.9316 564.907 61.9316H577.385C578.564 61.9316 579.519 62.8869 579.519 64.0653V190.636C579.519 191.815 578.564 192.77 577.385 192.77H564.907C563.729 192.77 562.773 191.815 562.773 190.636V64.0653Z" fill="#95D1FD"/>
                            <path d="M696.29 22.0097C696.29 20.8313 697.245 19.876 698.424 19.876H710.902C712.08 19.876 713.035 20.8313 713.035 22.0097V190.636C713.035 191.814 712.08 192.77 710.902 192.77H698.424C697.245 192.77 696.29 191.814 696.29 190.636V22.0097Z" fill="#95D1FD"/>
                            <path d="M123.491 201.305H124.43V206.851C124.43 207.346 124.339 207.767 124.157 208.113C123.975 208.459 123.719 208.721 123.388 208.901C123.057 209.08 122.667 209.17 122.218 209.17C121.793 209.17 121.416 209.093 121.085 208.938C120.754 208.782 120.494 208.56 120.304 208.272C120.115 207.984 120.02 207.642 120.02 207.245H120.945C120.945 207.465 120.999 207.657 121.108 207.821C121.219 207.982 121.37 208.109 121.562 208.2C121.754 208.291 121.973 208.336 122.218 208.336C122.488 208.336 122.718 208.279 122.907 208.166C123.096 208.052 123.24 207.885 123.339 207.666C123.44 207.443 123.491 207.172 123.491 206.851V201.305ZM129.859 206.684V203.244H130.753V209.063H129.859V208.078H129.798C129.662 208.374 129.45 208.625 129.162 208.832C128.874 209.037 128.51 209.139 128.071 209.139C127.707 209.139 127.384 209.06 127.101 208.901C126.818 208.739 126.596 208.496 126.434 208.173C126.273 207.847 126.192 207.437 126.192 206.942V203.244H127.086V206.881C127.086 207.306 127.205 207.644 127.442 207.897C127.682 208.149 127.987 208.275 128.359 208.275C128.581 208.275 128.807 208.219 129.037 208.105C129.269 207.991 129.464 207.817 129.62 207.582C129.779 207.347 129.859 207.048 129.859 206.684ZM133.285 201.305V209.063H132.391V201.305H133.285ZM135.498 211.246C135.347 211.246 135.212 211.233 135.093 211.208C134.974 211.185 134.892 211.162 134.847 211.14L135.074 210.352C135.291 210.407 135.483 210.427 135.65 210.412C135.816 210.397 135.964 210.323 136.093 210.189C136.224 210.057 136.344 209.844 136.453 209.548L136.62 209.094L134.468 203.244H135.438L137.044 207.881H137.105L138.711 203.244H139.681L137.211 209.912C137.1 210.213 136.962 210.461 136.798 210.658C136.634 210.858 136.443 211.006 136.226 211.102C136.011 211.198 135.768 211.246 135.498 211.246Z" fill="#939FAE"/>
                            <path d="M257.351 203.244C257.305 202.86 257.121 202.562 256.798 202.35C256.474 202.138 256.078 202.032 255.608 202.032C255.265 202.032 254.964 202.088 254.706 202.199C254.451 202.31 254.252 202.463 254.108 202.657C253.966 202.852 253.896 203.073 253.896 203.32C253.896 203.527 253.945 203.705 254.043 203.854C254.145 204.001 254.273 204.123 254.43 204.222C254.587 204.318 254.751 204.397 254.922 204.46C255.094 204.521 255.252 204.57 255.396 204.608L256.184 204.82C256.386 204.873 256.611 204.947 256.858 205.04C257.108 205.134 257.347 205.261 257.574 205.423C257.804 205.582 257.994 205.786 258.143 206.036C258.292 206.286 258.366 206.593 258.366 206.957C258.366 207.376 258.256 207.755 258.037 208.094C257.819 208.432 257.501 208.701 257.082 208.901C256.665 209.1 256.159 209.2 255.563 209.2C255.007 209.2 254.526 209.11 254.119 208.931C253.715 208.752 253.397 208.502 253.165 208.181C252.935 207.86 252.805 207.487 252.774 207.063H253.744C253.769 207.356 253.868 207.599 254.04 207.791C254.214 207.98 254.434 208.121 254.699 208.215C254.967 208.306 255.255 208.351 255.563 208.351C255.921 208.351 256.243 208.293 256.529 208.177C256.814 208.058 257.04 207.894 257.207 207.684C257.374 207.472 257.457 207.225 257.457 206.942C257.457 206.684 257.385 206.475 257.241 206.313C257.097 206.151 256.908 206.02 256.673 205.919C256.438 205.818 256.184 205.73 255.911 205.654L254.957 205.381C254.35 205.207 253.87 204.958 253.517 204.635C253.163 204.311 252.986 203.888 252.986 203.366C252.986 202.931 253.104 202.552 253.339 202.229C253.576 201.903 253.894 201.651 254.294 201.471C254.695 201.289 255.143 201.198 255.638 201.198C256.139 201.198 256.583 201.288 256.972 201.467C257.361 201.644 257.669 201.887 257.896 202.195C258.126 202.503 258.247 202.853 258.26 203.244H257.351ZM262.23 209.185C261.669 209.185 261.185 209.061 260.779 208.813C260.374 208.563 260.063 208.215 259.843 207.768C259.626 207.318 259.517 206.795 259.517 206.199C259.517 205.603 259.626 205.078 259.843 204.623C260.063 204.166 260.368 203.81 260.76 203.555C261.154 203.297 261.613 203.169 262.139 203.169C262.442 203.169 262.741 203.219 263.037 203.32C263.332 203.421 263.601 203.585 263.843 203.813C264.086 204.037 264.279 204.335 264.423 204.707C264.567 205.078 264.639 205.535 264.639 206.078V206.457H260.153V205.684H263.73C263.73 205.356 263.664 205.063 263.533 204.805C263.404 204.548 263.22 204.344 262.98 204.195C262.742 204.046 262.462 203.972 262.139 203.972C261.783 203.972 261.474 204.06 261.214 204.237C260.957 204.411 260.758 204.638 260.619 204.919C260.481 205.199 260.411 205.5 260.411 205.82V206.336C260.411 206.775 260.487 207.148 260.638 207.453C260.792 207.756 261.006 207.988 261.279 208.147C261.551 208.303 261.868 208.382 262.23 208.382C262.464 208.382 262.677 208.349 262.866 208.283C263.058 208.215 263.223 208.114 263.362 207.98C263.501 207.844 263.609 207.674 263.684 207.472L264.548 207.715C264.457 208.008 264.304 208.265 264.09 208.488C263.875 208.707 263.61 208.879 263.294 209.003C262.978 209.124 262.624 209.185 262.23 209.185ZM265.999 211.246V203.244H266.863V204.169H266.969C267.035 204.068 267.126 203.939 267.242 203.782C267.36 203.623 267.53 203.482 267.749 203.358C267.972 203.232 268.272 203.169 268.651 203.169C269.141 203.169 269.573 203.291 269.947 203.536C270.321 203.781 270.612 204.128 270.822 204.578C271.032 205.027 271.136 205.558 271.136 206.169C271.136 206.785 271.032 207.319 270.822 207.772C270.612 208.221 270.322 208.57 269.951 208.817C269.579 209.062 269.151 209.185 268.666 209.185C268.292 209.185 267.993 209.123 267.768 208.999C267.544 208.873 267.371 208.73 267.249 208.571C267.128 208.409 267.035 208.275 266.969 208.169H266.893V211.246H265.999ZM266.878 206.154C266.878 206.593 266.942 206.981 267.071 207.317C267.2 207.65 267.388 207.912 267.636 208.101C267.883 208.288 268.186 208.382 268.545 208.382C268.919 208.382 269.231 208.283 269.481 208.086C269.733 207.887 269.923 207.619 270.049 207.283C270.178 206.944 270.242 206.568 270.242 206.154C270.242 205.745 270.179 205.376 270.053 205.048C269.929 204.717 269.741 204.455 269.488 204.263C269.238 204.069 268.924 203.972 268.545 203.972C268.181 203.972 267.876 204.064 267.628 204.248C267.381 204.43 267.194 204.685 267.068 205.014C266.941 205.339 266.878 205.719 266.878 206.154ZM275.031 203.244V204.002H272.015V203.244H275.031ZM272.894 201.85H273.788V207.397C273.788 207.649 273.825 207.839 273.898 207.965C273.974 208.089 274.07 208.172 274.186 208.215C274.305 208.255 274.43 208.275 274.561 208.275C274.66 208.275 274.741 208.27 274.804 208.26C274.867 208.248 274.917 208.238 274.955 208.23L275.137 209.033C275.076 209.056 274.992 209.079 274.883 209.101C274.775 209.127 274.637 209.139 274.47 209.139C274.218 209.139 273.97 209.085 273.728 208.976C273.488 208.868 273.288 208.702 273.129 208.48C272.973 208.258 272.894 207.977 272.894 207.639V201.85Z" fill="#939FAE"/>
                            <path d="M395.932 205.184C395.932 206.002 395.784 206.71 395.489 207.306C395.193 207.902 394.788 208.361 394.273 208.685C393.757 209.008 393.169 209.17 392.507 209.17C391.845 209.17 391.257 209.008 390.742 208.685C390.226 208.361 389.821 207.902 389.525 207.306C389.23 206.71 389.082 206.002 389.082 205.184C389.082 204.366 389.23 203.659 389.525 203.062C389.821 202.466 390.226 202.007 390.742 201.683C391.257 201.36 391.845 201.198 392.507 201.198C393.169 201.198 393.757 201.36 394.273 201.683C394.788 202.007 395.193 202.466 395.489 203.062C395.784 203.659 395.932 204.366 395.932 205.184ZM395.023 205.184C395.023 204.512 394.91 203.945 394.685 203.483C394.463 203.021 394.161 202.671 393.78 202.434C393.401 202.196 392.977 202.077 392.507 202.077C392.037 202.077 391.612 202.196 391.23 202.434C390.851 202.671 390.55 203.021 390.325 203.483C390.103 203.945 389.991 204.512 389.991 205.184C389.991 205.856 390.103 206.423 390.325 206.885C390.55 207.347 390.851 207.697 391.23 207.934C391.612 208.172 392.037 208.291 392.507 208.291C392.977 208.291 393.401 208.172 393.78 207.934C394.161 207.697 394.463 207.347 394.685 206.885C394.91 206.423 395.023 205.856 395.023 205.184ZM399.755 209.185C399.209 209.185 398.739 209.056 398.345 208.798C397.951 208.541 397.648 208.186 397.436 207.734C397.224 207.282 397.118 206.765 397.118 206.184C397.118 205.593 397.226 205.072 397.443 204.62C397.663 204.165 397.969 203.81 398.36 203.555C398.754 203.297 399.214 203.169 399.739 203.169C400.149 203.169 400.517 203.244 400.846 203.396C401.174 203.547 401.443 203.76 401.653 204.032C401.862 204.305 401.992 204.623 402.043 204.987H401.149C401.08 204.722 400.929 204.487 400.694 204.282C400.462 204.075 400.149 203.972 399.755 203.972C399.406 203.972 399.1 204.063 398.838 204.244C398.578 204.424 398.374 204.678 398.228 205.006C398.084 205.332 398.012 205.714 398.012 206.154C398.012 206.603 398.082 206.995 398.224 207.328C398.368 207.662 398.57 207.921 398.83 208.105C399.093 208.289 399.401 208.382 399.755 208.382C399.987 208.382 400.198 208.341 400.387 208.26C400.577 208.179 400.737 208.063 400.868 207.912C401 207.76 401.093 207.578 401.149 207.366H402.043C401.992 207.71 401.867 208.019 401.668 208.294C401.471 208.567 401.209 208.784 400.883 208.946C400.56 209.105 400.184 209.185 399.755 209.185ZM405.881 203.244V204.002H402.865V203.244H405.881ZM403.744 201.85H404.638V207.397C404.638 207.649 404.675 207.839 404.748 207.965C404.824 208.089 404.92 208.172 405.036 208.215C405.154 208.255 405.279 208.275 405.411 208.275C405.509 208.275 405.59 208.27 405.653 208.26C405.716 208.248 405.767 208.238 405.805 208.23L405.987 209.033C405.926 209.056 405.841 209.079 405.733 209.101C405.624 209.127 405.487 209.139 405.32 209.139C405.067 209.139 404.82 209.085 404.577 208.976C404.337 208.868 404.138 208.702 403.979 208.48C403.822 208.258 403.744 207.977 403.744 207.639V201.85Z" fill="#939FAE"/>
                            <path d="M527.971 201.305V209.063H527.062L522.834 202.972H522.758V209.063H521.819V201.305H522.728L526.971 207.412H527.047V201.305H527.971ZM532.094 209.185C531.569 209.185 531.108 209.06 530.711 208.81C530.317 208.56 530.009 208.21 529.787 207.76C529.567 207.311 529.457 206.785 529.457 206.184C529.457 205.578 529.567 205.049 529.787 204.597C530.009 204.145 530.317 203.794 530.711 203.544C531.108 203.294 531.569 203.169 532.094 203.169C532.619 203.169 533.079 203.294 533.473 203.544C533.87 203.794 534.178 204.145 534.398 204.597C534.62 205.049 534.731 205.578 534.731 206.184C534.731 206.785 534.62 207.311 534.398 207.76C534.178 208.21 533.87 208.56 533.473 208.81C533.079 209.06 532.619 209.185 532.094 209.185ZM532.094 208.382C532.493 208.382 532.822 208.279 533.079 208.075C533.337 207.87 533.527 207.601 533.651 207.268C533.775 206.934 533.837 206.573 533.837 206.184C533.837 205.795 533.775 205.433 533.651 205.097C533.527 204.761 533.337 204.489 533.079 204.282C532.822 204.075 532.493 203.972 532.094 203.972C531.695 203.972 531.367 204.075 531.109 204.282C530.851 204.489 530.661 204.761 530.537 205.097C530.413 205.433 530.351 205.795 530.351 206.184C530.351 206.573 530.413 206.934 530.537 207.268C530.661 207.601 530.851 207.87 531.109 208.075C531.367 208.279 531.695 208.382 532.094 208.382ZM540.646 203.244L538.494 209.063H537.585L535.433 203.244H536.403L538.009 207.881H538.07L539.676 203.244H540.646Z" fill="#939FAE"/>
                            <path d="M657.875 209.063H655.481V201.305H657.982C658.734 201.305 659.378 201.46 659.914 201.771C660.449 202.079 660.86 202.522 661.145 203.1C661.43 203.676 661.573 204.366 661.573 205.169C661.573 205.977 661.429 206.673 661.141 207.256C660.853 207.837 660.434 208.284 659.883 208.597C659.333 208.908 658.664 209.063 657.875 209.063ZM656.421 208.23H657.815C658.456 208.23 658.988 208.106 659.41 207.859C659.832 207.611 660.146 207.259 660.353 206.802C660.56 206.345 660.664 205.8 660.664 205.169C660.664 204.542 660.562 204.003 660.357 203.551C660.152 203.097 659.847 202.748 659.44 202.506C659.034 202.261 658.527 202.138 657.921 202.138H656.421V208.23ZM665.468 209.185C664.907 209.185 664.423 209.061 664.017 208.813C663.613 208.563 663.301 208.215 663.081 207.768C662.864 207.318 662.755 206.795 662.755 206.199C662.755 205.603 662.864 205.078 663.081 204.623C663.301 204.166 663.606 203.81 663.998 203.555C664.392 203.297 664.851 203.169 665.377 203.169C665.68 203.169 665.979 203.219 666.275 203.32C666.57 203.421 666.839 203.585 667.082 203.813C667.324 204.037 667.517 204.335 667.661 204.707C667.805 205.078 667.877 205.535 667.877 206.078V206.457H663.392V205.684H666.968C666.968 205.356 666.902 205.063 666.771 204.805C666.642 204.548 666.458 204.344 666.218 204.195C665.98 204.046 665.7 203.972 665.377 203.972C665.021 203.972 664.713 204.06 664.452 204.237C664.195 204.411 663.996 204.638 663.858 204.919C663.719 205.199 663.649 205.5 663.649 205.82V206.336C663.649 206.775 663.725 207.148 663.877 207.453C664.031 207.756 664.244 207.988 664.517 208.147C664.79 208.303 665.107 208.382 665.468 208.382C665.703 208.382 665.915 208.349 666.104 208.283C666.296 208.215 666.462 208.114 666.6 207.98C666.739 207.844 666.847 207.674 666.922 207.472L667.786 207.715C667.695 208.008 667.543 208.265 667.328 208.488C667.113 208.707 666.848 208.879 666.532 209.003C666.217 209.124 665.862 209.185 665.468 209.185ZM671.601 209.185C671.056 209.185 670.586 209.056 670.192 208.798C669.798 208.541 669.495 208.186 669.283 207.734C669.071 207.282 668.965 206.765 668.965 206.184C668.965 205.593 669.073 205.072 669.29 204.62C669.51 204.165 669.816 203.81 670.207 203.555C670.601 203.297 671.061 203.169 671.586 203.169C671.995 203.169 672.364 203.244 672.692 203.396C673.021 203.547 673.29 203.76 673.499 204.032C673.709 204.305 673.839 204.623 673.89 204.987H672.996C672.927 204.722 672.776 204.487 672.541 204.282C672.309 204.075 671.995 203.972 671.601 203.972C671.253 203.972 670.947 204.063 670.685 204.244C670.424 204.424 670.221 204.678 670.075 205.006C669.931 205.332 669.859 205.714 669.859 206.154C669.859 206.603 669.929 206.995 670.071 207.328C670.215 207.662 670.417 207.921 670.677 208.105C670.94 208.289 671.248 208.382 671.601 208.382C671.834 208.382 672.045 208.341 672.234 208.26C672.423 208.179 672.584 208.063 672.715 207.912C672.846 207.76 672.94 207.578 672.996 207.366H673.89C673.839 207.71 673.714 208.019 673.515 208.294C673.318 208.567 673.056 208.784 672.73 208.946C672.407 209.105 672.031 209.185 671.601 209.185Z" fill="#939FAE"/>
                            <path d="M42.1909 11.7795V10.8324L45.5437 5.53601H46.29V6.93019H45.8165L43.4183 10.7263V10.7869H48.0138V11.7795H42.1909ZM45.8695 13.2949V11.4916L45.8771 11.0597V5.53601H46.9871V13.2949H45.8695ZM51.9713 13.4237C51.3727 13.4212 50.8613 13.2634 50.437 12.9502C50.0127 12.637 49.6881 12.1811 49.4633 11.5825C49.2385 10.9839 49.1262 10.2628 49.1262 9.41926C49.1262 8.5782 49.2385 7.85965 49.4633 7.26358C49.6906 6.66752 50.0165 6.2129 50.4408 5.89971C50.8676 5.58653 51.3778 5.42994 51.9713 5.42994C52.5649 5.42994 53.0738 5.58779 53.4981 5.9035C53.9224 6.21669 54.247 6.67131 54.4718 7.26737C54.6991 7.86091 54.8127 8.5782 54.8127 9.41926C54.8127 10.2654 54.7003 10.9877 54.4756 11.5863C54.2508 12.1824 53.9262 12.6382 53.5019 12.954C53.0776 13.2671 52.5674 13.4237 51.9713 13.4237ZM51.9713 12.4122C52.4967 12.4122 52.9071 12.1558 53.2026 11.6431C53.5006 11.1304 53.6497 10.3891 53.6497 9.41926C53.6497 8.77521 53.5815 8.23092 53.4451 7.7864C53.3112 7.33935 53.118 7.00091 52.8654 6.77107C52.6154 6.53871 52.3174 6.42253 51.9713 6.42253C51.4485 6.42253 51.0381 6.68015 50.7401 7.19539C50.442 7.71063 50.2918 8.45192 50.2892 9.41926C50.2892 10.0658 50.3562 10.6126 50.49 11.0597C50.6264 11.5042 50.8196 11.8414 51.0697 12.0712C51.3197 12.2985 51.6203 12.4122 51.9713 12.4122Z" fill="#939FAE"/>
                            <path d="M45.055 62.6744C44.5347 62.6744 44.07 62.5848 43.6608 62.4055C43.2542 62.2261 42.9321 61.9773 42.6947 61.6591C42.4598 61.3384 42.3336 60.9671 42.3159 60.5453H43.5055C43.5206 60.7751 43.5977 60.9747 43.7366 61.1439C43.878 61.3106 44.0624 61.4394 44.2897 61.5303C44.517 61.6212 44.7696 61.6667 45.0474 61.6667C45.353 61.6667 45.6233 61.6137 45.8582 61.5076C46.0956 61.4015 46.2812 61.2537 46.4151 61.0643C46.5489 60.8724 46.6159 60.6514 46.6159 60.4013C46.6159 60.1412 46.5489 59.9126 46.4151 59.7156C46.2837 59.5161 46.0905 59.3595 45.8354 59.2458C45.5829 59.1322 45.2772 59.0753 44.9186 59.0753H44.2632V58.1206H44.9186C45.2065 58.1206 45.4591 58.0688 45.6763 57.9653C45.896 57.8617 46.0678 57.7178 46.1915 57.5334C46.3153 57.3465 46.3772 57.128 46.3772 56.878C46.3772 56.638 46.3229 56.4297 46.2143 56.2529C46.1082 56.0736 45.9567 55.9334 45.7596 55.8324C45.5652 55.7313 45.3353 55.6808 45.0701 55.6808C44.8176 55.6808 44.5814 55.7275 44.3617 55.821C44.1445 55.9119 43.9677 56.0432 43.8313 56.215C43.6949 56.3842 43.6217 56.5875 43.6116 56.8249H42.4788C42.4914 56.4057 42.6152 56.0369 42.8501 55.7187C43.0875 55.4005 43.4007 55.1517 43.7896 54.9724C44.1786 54.793 44.6105 54.7034 45.0853 54.7034C45.5829 54.7034 46.0122 54.8006 46.3734 54.9951C46.7371 55.187 47.0174 55.4434 47.2144 55.7642C47.414 56.0849 47.5125 56.436 47.51 56.8174C47.5125 57.2518 47.3912 57.6205 47.1463 57.9236C46.9038 58.2267 46.5805 58.43 46.1764 58.5336V58.5942C46.6916 58.6725 47.0907 58.8771 47.3736 59.2079C47.659 59.5388 47.8004 59.9492 47.7979 60.4392C47.8004 60.866 47.6817 61.2487 47.4418 61.5871C47.2043 61.9256 46.8798 62.192 46.4681 62.3865C46.0564 62.5785 45.5854 62.6744 45.055 62.6744ZM51.8672 62.6972C51.2686 62.6946 50.7571 62.5368 50.3328 62.2236C49.9085 61.9104 49.5839 61.4545 49.3591 60.8559C49.1344 60.2574 49.022 59.5363 49.022 58.6927C49.022 57.8516 49.1344 57.1331 49.3591 56.537C49.5865 55.941 49.9123 55.4863 50.3366 55.1732C50.7634 54.86 51.2736 54.7034 51.8672 54.7034C52.4607 54.7034 52.9696 54.8612 53.3939 55.1769C53.8182 55.4901 54.1428 55.9447 54.3676 56.5408C54.5949 57.1343 54.7085 57.8516 54.7085 58.6927C54.7085 59.5388 54.5962 60.2611 54.3714 60.8597C54.1466 61.4558 53.822 61.9117 53.3977 62.2274C52.9734 62.5406 52.4632 62.6972 51.8672 62.6972ZM51.8672 61.6856C52.3925 61.6856 52.8029 61.4293 53.0984 60.9166C53.3965 60.4038 53.5455 59.6626 53.5455 58.6927C53.5455 58.0486 53.4773 57.5044 53.3409 57.0598C53.207 56.6128 53.0138 56.2743 52.7612 56.0445C52.5112 55.8121 52.2132 55.696 51.8672 55.696C51.3443 55.696 50.9339 55.9536 50.6359 56.4688C50.3378 56.9841 50.1876 57.7254 50.185 58.6927C50.185 59.3393 50.252 59.8861 50.3858 60.3331C50.5222 60.7776 50.7154 61.1148 50.9655 61.3447C51.2155 61.572 51.5161 61.6856 51.8672 61.6856Z" fill="#939FAE"/>
                            <path d="M42.3538 111.841V110.992L44.9792 108.272C45.2596 107.977 45.4907 107.718 45.6725 107.495C45.8569 107.271 45.9945 107.057 46.0855 106.855C46.1764 106.653 46.2219 106.438 46.2219 106.211C46.2219 105.953 46.1612 105.731 46.04 105.544C45.9188 105.355 45.7533 105.21 45.5437 105.109C45.3341 105.005 45.0979 104.953 44.8352 104.953C44.5574 104.953 44.315 105.01 44.1079 105.124C43.9007 105.237 43.7416 105.398 43.6305 105.605C43.5194 105.812 43.4638 106.054 43.4638 106.332H42.3462C42.3462 105.86 42.4548 105.447 42.672 105.093C42.8892 104.74 43.1872 104.466 43.5661 104.271C43.9449 104.074 44.3756 103.976 44.858 103.976C45.3454 103.976 45.7748 104.073 46.1461 104.268C46.5199 104.46 46.8116 104.722 47.0212 105.056C47.2309 105.386 47.3357 105.76 47.3357 106.177C47.3357 106.465 47.2814 106.747 47.1728 107.022C47.0667 107.297 46.8811 107.604 46.6159 107.942C46.3507 108.278 45.9819 108.686 45.5096 109.166L43.9677 110.78V110.837H47.4607V111.841H42.3538ZM51.5338 111.97C50.9352 111.967 50.4237 111.809 49.9994 111.496C49.5751 111.183 49.2505 110.727 49.0258 110.128C48.801 109.53 48.6886 108.809 48.6886 107.965C48.6886 107.124 48.801 106.406 49.0258 105.809C49.2531 105.213 49.5789 104.759 50.0032 104.446C50.43 104.132 50.9402 103.976 51.5338 103.976C52.1273 103.976 52.6362 104.134 53.0605 104.449C53.4849 104.763 53.8094 105.217 54.0342 105.813C54.2615 106.407 54.3752 107.124 54.3752 107.965C54.3752 108.811 54.2628 109.534 54.038 110.132C53.8132 110.728 53.4886 111.184 53.0643 111.5C52.64 111.813 52.1298 111.97 51.5338 111.97ZM51.5338 110.958C52.0591 110.958 52.4695 110.702 52.765 110.189C53.0631 109.676 53.2121 108.935 53.2121 107.965C53.2121 107.321 53.1439 106.777 53.0075 106.332C52.8736 105.885 52.6804 105.547 52.4279 105.317C52.1778 105.085 51.8798 104.968 51.5338 104.968C51.0109 104.968 50.6005 105.226 50.3025 105.741C50.0045 106.257 49.8542 106.998 49.8517 107.965C49.8517 108.612 49.9186 109.159 50.0524 109.606C50.1888 110.05 50.382 110.387 50.6321 110.617C50.8821 110.844 51.1827 110.958 51.5338 110.958Z" fill="#939FAE"/>
                            <path d="M45.2974 153.355V161.114H44.123V154.53H44.0775L42.2212 155.742V154.621L44.1571 153.355H45.2974ZM50.0335 161.243C49.4349 161.241 48.9235 161.083 48.4992 160.77C48.0748 160.456 47.7503 160 47.5255 159.402C47.3007 158.803 47.1883 158.082 47.1883 157.239C47.1883 156.398 47.3007 155.679 47.5255 155.083C47.7528 154.487 48.0786 154.032 48.5029 153.719C48.9298 153.406 49.44 153.249 50.0335 153.249C50.627 153.249 51.136 153.407 51.5603 153.723C51.9846 154.036 52.3091 154.491 52.5339 155.087C52.7612 155.68 52.8749 156.398 52.8749 157.239C52.8749 158.085 52.7625 158.807 52.5377 159.406C52.3129 160.002 51.9884 160.458 51.5641 160.773C51.1398 161.086 50.6296 161.243 50.0335 161.243ZM50.0335 160.232C50.5588 160.232 50.9693 159.975 51.2648 159.462C51.5628 158.95 51.7118 158.208 51.7118 157.239C51.7118 156.595 51.6436 156.05 51.5072 155.606C51.3734 155.159 51.1802 154.82 50.9276 154.59C50.6776 154.358 50.3795 154.242 50.0335 154.242C49.5107 154.242 49.1003 154.499 48.8022 155.015C48.5042 155.53 48.3539 156.271 48.3514 157.239C48.3514 157.885 48.4183 158.432 48.5522 158.879C48.6886 159.324 48.8818 159.661 49.1318 159.891C49.3819 160.118 49.6824 160.232 50.0335 160.232Z" fill="#939FAE"/>
                            <path d="M60.4588 210.516C59.8602 210.513 59.3488 210.355 58.9244 210.042C58.5001 209.729 58.1756 209.273 57.9508 208.674C57.726 208.076 57.6136 207.355 57.6136 206.511C57.6136 205.67 57.726 204.951 57.9508 204.355C58.1781 203.759 58.5039 203.305 58.9282 202.992C59.3551 202.678 59.8653 202.522 60.4588 202.522C61.0523 202.522 61.5613 202.68 61.9856 202.995C62.4099 203.308 62.7344 203.763 62.9592 204.359C63.1865 204.953 63.3002 205.67 63.3002 206.511C63.3002 207.357 63.1878 208.08 62.963 208.678C62.7382 209.274 62.4137 209.73 61.9894 210.046C61.565 210.359 61.0549 210.516 60.4588 210.516ZM60.4588 209.504C60.9841 209.504 61.3946 209.248 61.6901 208.735C61.9881 208.222 62.1371 207.481 62.1371 206.511C62.1371 205.867 62.0689 205.323 61.9325 204.878C61.7987 204.431 61.6055 204.093 61.3529 203.863C61.1028 203.631 60.8048 203.514 60.4588 203.514C59.936 203.514 59.5256 203.772 59.2275 204.287C58.9295 204.802 58.7792 205.544 58.7767 206.511C58.7767 207.158 58.8436 207.704 58.9775 208.151C59.1139 208.596 59.3071 208.933 59.5571 209.163C59.8072 209.39 60.1077 209.504 60.4588 209.504Z" fill="#939FAE"/>
                            <path d="M13.9173 142.505H12.9095V136.5H13.9173V138.921H20.6685V140.088H13.9173V142.505ZM20.7859 133.721C20.7859 134.266 20.6609 134.742 20.4108 135.149C20.1608 135.556 19.811 135.871 19.3614 136.096C18.9118 136.321 18.3865 136.433 17.7854 136.433C17.1817 136.433 16.6539 136.321 16.2018 136.096C15.7497 135.871 15.3986 135.556 15.1486 135.149C14.8985 134.742 14.7735 134.266 14.7735 133.721C14.7735 133.175 14.8985 132.699 15.1486 132.292C15.3986 131.886 15.7497 131.57 16.2018 131.345C16.6539 131.121 17.1817 131.008 17.7854 131.008C18.3865 131.008 18.9118 131.121 19.3614 131.345C19.811 131.57 20.1608 131.886 20.4108 132.292C20.6609 132.699 20.7859 133.175 20.7859 133.721ZM19.835 133.717C19.835 133.363 19.7415 133.07 19.5546 132.838C19.3677 132.606 19.1189 132.434 18.8083 132.323C18.4976 132.209 18.1554 132.152 17.7816 132.152C17.4103 132.152 17.0694 132.209 16.7587 132.323C16.4455 132.434 16.1942 132.606 16.0048 132.838C15.8154 133.07 15.7206 133.363 15.7206 133.717C15.7206 134.073 15.8154 134.369 16.0048 134.603C16.1942 134.836 16.4455 135.009 16.7587 135.122C17.0694 135.234 17.4103 135.289 17.7816 135.289C18.1554 135.289 18.4976 135.234 18.8083 135.122C19.1189 135.009 19.3677 134.836 19.5546 134.603C19.7415 134.369 19.835 134.073 19.835 133.717ZM14.8493 127.091H15.7585V130.27H14.8493V127.091ZM13.4551 129.418V128.285H18.9598C19.1796 128.285 19.345 128.252 19.4561 128.186C19.5647 128.121 19.6392 128.036 19.6797 127.932C19.7175 127.826 19.7365 127.711 19.7365 127.588C19.7365 127.497 19.7302 127.417 19.7175 127.349C19.7049 127.281 19.6948 127.228 19.6872 127.19L20.623 126.985C20.6483 127.051 20.6735 127.144 20.6988 127.266C20.7265 127.387 20.7417 127.538 20.7442 127.72C20.7493 128.018 20.6962 128.296 20.5851 128.554C20.474 128.811 20.3022 129.02 20.0699 129.179C19.8375 129.338 19.5458 129.418 19.1947 129.418H13.4551ZM20.7973 124.209C20.7973 124.578 20.7291 124.911 20.5927 125.209C20.4538 125.507 20.253 125.743 19.9903 125.917C19.7276 126.089 19.4056 126.175 19.0242 126.175C18.6959 126.175 18.4256 126.112 18.2135 125.986C18.0013 125.859 17.8334 125.689 17.7096 125.474C17.5859 125.26 17.4924 125.02 17.4293 124.754C17.3661 124.489 17.3181 124.219 17.2853 123.944C17.2449 123.595 17.2121 123.312 17.1868 123.095C17.159 122.878 17.1148 122.72 17.0542 122.621C16.9936 122.523 16.8951 122.474 16.7587 122.474H16.7322C16.4013 122.474 16.145 122.567 15.9631 122.754C15.7813 122.938 15.6903 123.214 15.6903 123.58C15.6903 123.961 15.7749 124.262 15.9442 124.482C16.1109 124.699 16.2965 124.849 16.5011 124.932L16.2586 125.997C15.905 125.871 15.6196 125.686 15.4024 125.444C15.1827 125.199 15.0235 124.917 14.925 124.599C14.824 124.281 14.7735 123.946 14.7735 123.595C14.7735 123.363 14.8013 123.116 14.8569 122.856C14.9099 122.594 15.0084 122.349 15.1524 122.121C15.2963 121.892 15.5022 121.703 15.7699 121.557C16.0351 121.41 16.3798 121.337 16.8042 121.337H20.6685V122.443H19.8729V122.489C20.0194 122.562 20.1633 122.672 20.3048 122.818C20.4462 122.965 20.5636 123.153 20.6571 123.383C20.7505 123.613 20.7973 123.888 20.7973 124.209ZM19.888 123.963C19.888 123.649 19.8261 123.382 19.7024 123.159C19.5786 122.935 19.417 122.764 19.2175 122.648C19.0154 122.529 18.7994 122.47 18.5696 122.47H17.8195C17.8599 122.51 17.8978 122.589 17.9331 122.705C17.966 122.818 17.995 122.949 18.0203 123.095C18.043 123.242 18.0645 123.384 18.0847 123.523C18.1024 123.662 18.1175 123.778 18.1301 123.872C18.1579 124.091 18.2047 124.292 18.2703 124.474C18.336 124.653 18.4307 124.797 18.5545 124.906C18.6757 125.012 18.8373 125.065 19.0394 125.065C19.3197 125.065 19.5319 124.961 19.6759 124.754C19.8173 124.547 19.888 124.283 19.888 123.963ZM12.9095 118.76H20.6685V119.892H12.9095V118.76ZM12.9095 109.46V108.285H18.0127C18.5557 108.285 19.0369 108.413 19.4561 108.668C19.8729 108.923 20.2012 109.282 20.4411 109.744C20.6786 110.206 20.7973 110.748 20.7973 111.369C20.7973 111.988 20.6786 112.529 20.4411 112.991C20.2012 113.453 19.8729 113.812 19.4561 114.067C19.0369 114.322 18.5557 114.449 18.0127 114.449H12.9095V113.279H17.918C18.2691 113.279 18.581 113.202 18.8538 113.048C19.1265 112.891 19.3412 112.67 19.4978 112.385C19.6519 112.099 19.7289 111.761 19.7289 111.369C19.7289 110.975 19.6519 110.636 19.4978 110.35C19.3412 110.062 19.1265 109.843 18.8538 109.691C18.581 109.537 18.2691 109.46 17.918 109.46H12.9095ZM16.27 102.378L16.4518 103.404C16.3205 103.447 16.1955 103.516 16.0768 103.609C15.9581 103.7 15.8608 103.824 15.785 103.98C15.7093 104.137 15.6714 104.333 15.6714 104.568C15.6714 104.888 15.7434 105.156 15.8873 105.371C16.0288 105.585 16.2119 105.693 16.4367 105.693C16.6311 105.693 16.7877 105.621 16.9064 105.477C17.0252 105.333 17.1224 105.1 17.1982 104.78L17.4103 103.855C17.5341 103.32 17.7248 102.921 17.9824 102.658C18.24 102.395 18.5747 102.264 18.9864 102.264C19.3349 102.264 19.6456 102.365 19.9183 102.567C20.1886 102.767 20.4007 103.046 20.5548 103.404C20.7089 103.761 20.7859 104.174 20.7859 104.643C20.7859 105.295 20.647 105.827 20.3692 106.238C20.0888 106.65 19.691 106.903 19.1758 106.996L19.0091 105.901C19.2945 105.833 19.5104 105.693 19.6569 105.481C19.8009 105.268 19.8729 104.992 19.8729 104.651C19.8729 104.28 19.7958 103.983 19.6418 103.761C19.4852 103.538 19.2945 103.427 19.0697 103.427C18.8878 103.427 18.735 103.495 18.6113 103.632C18.4875 103.766 18.3941 103.971 18.3309 104.249L18.115 105.234C17.9912 105.777 17.7942 106.179 17.524 106.439C17.2537 106.697 16.9115 106.825 16.4973 106.825C16.1538 106.825 15.8532 106.73 15.5956 106.538C15.338 106.346 15.1372 106.08 14.9932 105.742C14.8468 105.404 14.7735 105.016 14.7735 104.579C14.7735 103.95 14.9099 103.455 15.1827 103.094C15.4529 102.733 15.8154 102.494 16.27 102.378ZM20.7859 98.5746C20.7859 99.148 20.6634 99.6417 20.4184 100.056C20.1709 100.468 19.8236 100.786 19.3766 101.011C18.927 101.233 18.4004 101.344 17.7968 101.344C17.2007 101.344 16.6753 101.233 16.2207 101.011C15.7661 100.786 15.4112 100.473 15.1561 100.071C14.9011 99.667 14.7735 99.1947 14.7735 98.6542C14.7735 98.3259 14.8278 98.0076 14.9364 97.6995C15.045 97.3913 15.2155 97.1148 15.4479 96.8698C15.6802 96.6248 15.982 96.4316 16.3533 96.2901C16.7221 96.1487 17.1704 96.078 17.6983 96.078H18.0998V100.704H17.2512V97.188C16.9532 97.188 16.6892 97.2486 16.4594 97.3699C16.227 97.4911 16.0439 97.6616 15.9101 97.8813C15.7762 98.0985 15.7093 98.3536 15.7093 98.6466C15.7093 98.9648 15.7876 99.2427 15.9442 99.4801C16.0982 99.715 16.3003 99.8968 16.5503 100.026C16.7978 100.152 17.0668 100.215 17.3573 100.215H18.0203C18.4092 100.215 18.7401 100.147 19.0129 100.01C19.2856 99.8716 19.494 99.6784 19.638 99.4308C19.7794 99.1833 19.8501 98.8941 19.8501 98.5633C19.8501 98.3486 19.8198 98.1528 19.7592 97.976C19.6961 97.7992 19.6026 97.6464 19.4789 97.5176C19.3551 97.3888 19.2023 97.2903 19.0204 97.2221L19.2137 96.15C19.5294 96.2358 19.8059 96.3899 20.0433 96.6122C20.2782 96.8319 20.4614 97.1085 20.5927 97.4419C20.7215 97.7727 20.7859 98.1503 20.7859 98.5746ZM20.6685 94.8852H14.8493V93.7903H15.7737V93.7297C15.4605 93.6236 15.2142 93.4367 15.0349 93.169C14.8531 92.8987 14.7621 92.5931 14.7621 92.2521C14.7621 92.1814 14.7647 92.0981 14.7697 92.0021C14.7748 91.9036 14.7811 91.8266 14.7887 91.771H15.8722C15.8596 91.8164 15.8457 91.8973 15.8305 92.0135C15.8128 92.1296 15.804 92.2458 15.804 92.362C15.804 92.6297 15.8608 92.8684 15.9745 93.078C16.0856 93.2851 16.2409 93.4493 16.4405 93.5705C16.6375 93.6918 16.8622 93.7524 17.1148 93.7524H20.6685V94.8852Z" fill="#939FAE"/>
                            </svg>