<svg width="337" height="230" viewBox="0 0 337 241" fill="none" xmlns="http://www.w3.org/2000/svg">
                            <path d="M3.24884 137.62H2.24109L2.24109 131.615H3.24884V134.036H10V135.203H3.24884V137.62ZM10.1174 128.836C10.1174 129.382 9.99242 129.858 9.74238 130.264C9.49234 130.671 9.14253 130.987 8.69296 131.211C8.24339 131.436 7.71804 131.549 7.11693 131.549C6.51329 131.549 5.98542 131.436 5.53332 131.211C5.08123 130.987 4.73016 130.671 4.48011 130.264C4.23007 129.858 4.10505 129.382 4.10505 128.836C4.10505 128.29 4.23007 127.814 4.48011 127.408C4.73016 127.001 5.08123 126.685 5.53332 126.461C5.98542 126.236 6.51329 126.123 7.11693 126.123C7.71804 126.123 8.24339 126.236 8.69296 126.461C9.14253 126.685 9.49234 127.001 9.74238 127.408C9.99242 127.814 10.1174 128.29 10.1174 128.836ZM9.16652 128.832C9.16652 128.479 9.07307 128.186 8.88617 127.953C8.69927 127.721 8.45049 127.549 8.13983 127.438C7.82917 127.324 7.48694 127.268 7.11314 127.268C6.74186 127.268 6.4009 127.324 6.09024 127.438C5.77705 127.549 5.52575 127.721 5.33632 127.953C5.14689 128.186 5.05218 128.479 5.05218 128.832C5.05218 129.188 5.14689 129.484 5.33632 129.719C5.52575 129.951 5.77705 130.124 6.09024 130.238C6.4009 130.349 6.74186 130.404 7.11314 130.404C7.48694 130.404 7.82917 130.349 8.13983 130.238C8.45049 130.124 8.69927 129.951 8.88617 129.719C9.07307 129.484 9.16652 129.188 9.16652 128.832ZM4.18082 122.207H5.09007V125.385H4.18082V122.207ZM2.78664 124.533V123.4H8.29137C8.51111 123.4 8.67654 123.367 8.78767 123.301C8.89628 123.236 8.97078 123.151 9.01119 123.048C9.04908 122.942 9.06802 122.827 9.06802 122.703C9.06802 122.612 9.06171 122.532 9.04908 122.464C9.03645 122.396 9.02635 122.343 9.01877 122.305L9.95454 122.101C9.97979 122.166 10.0051 122.26 10.0303 122.381C10.0581 122.502 10.0732 122.654 10.0758 122.835C10.0808 123.134 10.0278 123.411 9.91665 123.669C9.80552 123.927 9.63378 124.135 9.40141 124.294C9.16905 124.453 8.87733 124.533 8.52626 124.533H2.78664ZM10.1288 119.324C10.1288 119.693 10.0606 120.026 9.92423 120.324C9.78532 120.622 9.58452 120.858 9.32185 121.033C9.05918 121.204 8.73716 121.29 8.35578 121.29C8.02744 121.29 7.75719 121.227 7.54503 121.101C7.33288 120.975 7.16492 120.804 7.04116 120.589C6.9174 120.375 6.82395 120.135 6.76081 119.87C6.69767 119.604 6.64968 119.334 6.61684 119.059C6.57643 118.71 6.5436 118.427 6.51834 118.21C6.49056 117.993 6.44636 117.835 6.38574 117.737C6.32513 117.638 6.22662 117.589 6.09024 117.589H6.06372C5.73285 117.589 5.4765 117.682 5.29465 117.869C5.1128 118.054 5.02187 118.329 5.02187 118.695C5.02187 119.077 5.10648 119.377 5.2757 119.597C5.4424 119.814 5.62804 119.964 5.83262 120.048L5.59015 121.112C5.23656 120.986 4.95115 120.802 4.73394 120.559C4.51421 120.314 4.35509 120.033 4.25659 119.714C4.15556 119.396 4.10505 119.061 4.10505 118.71C4.10505 118.478 4.13283 118.232 4.1884 117.972C4.24144 117.709 4.33994 117.464 4.4839 117.237C4.62787 117.007 4.83371 116.819 5.10143 116.672C5.36663 116.526 5.71139 116.452 6.1357 116.452H10V117.559H9.20441V117.604C9.3509 117.677 9.49486 117.787 9.6363 117.934C9.77774 118.08 9.89518 118.268 9.98863 118.498C10.0821 118.728 10.1288 119.003 10.1288 119.324ZM9.21956 119.078C9.21956 118.765 9.15768 118.497 9.03393 118.275C8.91017 118.05 8.74852 117.879 8.54899 117.763C8.34694 117.644 8.13099 117.585 7.90115 117.585H7.15103C7.19144 117.626 7.22932 117.704 7.26468 117.82C7.29752 117.934 7.32656 118.064 7.35182 118.21C7.37455 118.357 7.39602 118.499 7.41622 118.638C7.4339 118.777 7.44906 118.893 7.46169 118.987C7.48947 119.207 7.53619 119.407 7.60186 119.589C7.66753 119.769 7.76224 119.913 7.886 120.021C8.00723 120.127 8.16888 120.18 8.37093 120.18C8.65128 120.18 8.86344 120.077 9.00741 119.87C9.14884 119.663 9.21956 119.399 9.21956 119.078ZM2.24109 113.875H10V115.008H2.24109V113.875ZM5.60152 105.295L5.78337 106.322C5.65203 106.365 5.52701 106.433 5.4083 106.526C5.2896 106.617 5.19236 106.741 5.11659 106.897C5.04082 107.054 5.00293 107.25 5.00293 107.485C5.00293 107.805 5.07491 108.073 5.21888 108.288C5.36031 108.503 5.54343 108.61 5.76821 108.61C5.96269 108.61 6.11928 108.538 6.23799 108.394C6.3567 108.25 6.45394 108.018 6.52971 107.697L6.74186 106.772C6.86562 106.237 7.05631 105.838 7.31393 105.575C7.57155 105.313 7.90621 105.181 8.31789 105.181C8.66644 105.181 8.9771 105.282 9.24987 105.484C9.52012 105.684 9.73228 105.963 9.88634 106.322C10.0404 106.678 10.1174 107.091 10.1174 107.56C10.1174 108.212 9.97853 108.744 9.70071 109.155C9.42036 109.567 9.02256 109.82 8.50732 109.913L8.34062 108.818C8.62603 108.75 8.84197 108.61 8.98846 108.398C9.13243 108.186 9.20441 107.909 9.20441 107.568C9.20441 107.197 9.12738 106.9 8.97331 106.678C8.81672 106.455 8.62603 106.344 8.40124 106.344C8.21939 106.344 8.06659 106.413 7.94283 106.549C7.81907 106.683 7.72562 106.889 7.66248 107.166L7.44653 108.151C7.32277 108.694 7.12577 109.096 6.85552 109.356C6.58527 109.614 6.24304 109.743 5.82883 109.743C5.48534 109.743 5.18478 109.647 4.92716 109.455C4.66954 109.263 4.46875 108.998 4.32478 108.659C4.17829 108.321 4.10505 107.933 4.10505 107.496C4.10505 106.867 4.24144 106.372 4.51421 106.011C4.78446 105.65 5.14689 105.411 5.60152 105.295ZM10 104H4.18082V102.867H10V104ZM3.28294 103.428C3.28294 103.625 3.21727 103.794 3.08593 103.935C2.95207 104.074 2.79295 104.144 2.60858 104.144C2.42168 104.144 2.26256 104.074 2.13122 103.935C1.99736 103.794 1.93043 103.625 1.93043 103.428C1.93043 103.231 1.99736 103.063 2.13122 102.924C2.26256 102.782 2.42168 102.712 2.60858 102.712C2.79295 102.712 2.95207 102.782 3.08593 102.924C3.21727 103.063 3.28294 103.231 3.28294 103.428ZM12.3034 98.9673C12.3034 99.4295 12.2428 99.8273 12.1216 100.161C12.0003 100.492 11.84 100.762 11.6404 100.971C11.4409 101.181 11.2224 101.338 10.985 101.441L10.5834 100.468C10.6946 100.399 10.812 100.308 10.9358 100.195C11.0621 100.079 11.1694 99.922 11.2578 99.725C11.3462 99.5255 11.3904 99.2691 11.3904 98.9559C11.3904 98.5266 11.2856 98.1717 11.0759 97.8913C10.8688 97.611 10.538 97.4708 10.0833 97.4708H8.93921V97.5428C9.06297 97.611 9.20062 97.7095 9.35216 97.8383C9.5037 97.9646 9.63504 98.1389 9.74617 98.3611C9.8573 98.5834 9.91286 98.8726 9.91286 99.2287C9.91286 99.6884 9.80552 100.103 9.59084 100.471C9.37363 100.838 9.05413 101.128 8.63234 101.343C8.20803 101.555 7.68647 101.661 7.06768 101.661C6.44889 101.661 5.91849 101.556 5.4765 101.346C5.0345 101.134 4.69606 100.844 4.46117 100.475C4.22376 100.106 4.10505 99.6884 4.10505 99.2211C4.10505 98.8599 4.16567 98.5682 4.2869 98.346C4.40561 98.1237 4.54452 97.9507 4.70364 97.8269C4.86275 97.7007 5.00293 97.6034 5.12416 97.5352V97.4519H4.18082V96.3418H10.1288C10.6289 96.3418 11.0393 96.458 11.3601 96.6904C11.6808 96.9227 11.9183 97.2372 12.0723 97.6337C12.2264 98.0277 12.3034 98.4723 12.3034 98.9673ZM8.97331 98.9787C8.97331 98.6528 8.89754 98.3775 8.746 98.1528C8.59193 97.9254 8.3722 97.7537 8.08679 97.6375C7.79886 97.5188 7.45411 97.4595 7.05252 97.4595C6.66104 97.4595 6.31629 97.5175 6.01826 97.6337C5.72022 97.7499 5.48786 97.9204 5.32117 98.1452C5.15195 98.37 5.06733 98.6478 5.06733 98.9787C5.06733 99.3196 5.15573 99.6038 5.33253 99.8311C5.5068 100.058 5.74422 100.23 6.04478 100.346C6.34533 100.46 6.68125 100.517 7.05252 100.517C7.4339 100.517 7.76856 100.459 8.05648 100.343C8.34441 100.226 8.5692 100.055 8.73084 99.8273C8.89249 99.5974 8.97331 99.3146 8.97331 98.9787ZM6.54486 93.7539H10V94.8866H4.18082V93.7993H5.12795V93.7274C4.81982 93.5935 4.5723 93.3839 4.3854 93.0985C4.1985 92.8105 4.10505 92.4481 4.10505 92.0112C4.10505 91.6146 4.1884 91.2673 4.35509 90.9693C4.51926 90.6713 4.76425 90.4402 5.09007 90.276C5.41588 90.1118 5.81873 90.0298 6.29861 90.0298H10L10 91.1625H6.43499C6.0132 91.1625 5.6836 91.2724 5.44619 91.4921C5.20625 91.7119 5.08628 92.0137 5.08628 92.3976C5.08628 92.6603 5.14311 92.8939 5.25676 93.0985C5.37042 93.3005 5.53711 93.4609 5.75685 93.5796C5.97406 93.6958 6.23673 93.7539 6.54486 93.7539ZM7.58671 84.8883H4.18082V83.7518H10V84.8656H8.99225V84.9262C9.30291 85.0601 9.56179 85.2748 9.7689 85.5703C9.97348 85.8632 10.0758 86.2282 10.0758 86.6651C10.0758 87.0389 9.99369 87.3698 9.82952 87.6577C9.66282 87.9431 9.41657 88.1679 9.09075 88.3321C8.76494 88.4937 8.36209 88.5746 7.88221 88.5746H4.18082V87.4418H7.74583C8.14236 87.4418 8.45807 87.3319 8.69296 87.1122C8.92785 86.8925 9.04529 86.6071 9.04529 86.256C9.04529 86.0438 8.99225 85.8329 8.88617 85.6233C8.78009 85.4111 8.61971 85.2356 8.40503 85.0967C8.19035 84.9553 7.91757 84.8858 7.58671 84.8883ZM12.1822 82.2937H4.18082L4.18082 81.1875H5.12416V81.0928C5.00293 81.0271 4.86275 80.9324 4.70364 80.8086C4.54452 80.6849 4.40561 80.5131 4.2869 80.2934C4.16567 80.0737 4.10505 79.7832 4.10505 79.422C4.10505 78.9523 4.22376 78.533 4.46117 78.1642C4.69858 77.7955 5.04082 77.5063 5.48786 77.2967C5.93491 77.0845 6.47288 76.9784 7.10178 76.9784C7.73067 76.9784 8.2699 77.0832 8.71948 77.2929C9.16652 77.5025 9.51128 77.7904 9.75375 78.1567C9.99369 78.5229 10.1137 78.9409 10.1137 79.4107C10.1137 79.7643 10.0543 80.0535 9.9356 80.2782C9.81689 80.5005 9.67798 80.6748 9.51886 80.8011C9.35974 80.9273 9.2183 81.0246 9.09454 81.0928V81.161H12.1822V82.2937ZM7.09041 81.1837C7.49957 81.1837 7.85822 81.1243 8.16635 81.0056C8.47449 80.8869 8.71569 80.7152 8.88996 80.4904C9.06171 80.2656 9.14758 79.9903 9.14758 79.6645C9.14758 79.3261 9.05792 79.0432 8.8786 78.8159C8.69675 78.5886 8.45049 78.4168 8.13983 78.3006C7.82917 78.1819 7.47937 78.1226 7.09041 78.1226C6.70651 78.1226 6.36175 78.1807 6.05614 78.2968C5.75053 78.4105 5.50933 78.5822 5.33253 78.8121C5.15573 79.0394 5.06733 79.3235 5.06733 79.6645C5.06733 79.9928 5.15195 80.2707 5.32117 80.498C5.49039 80.7228 5.72654 80.8932 6.02962 81.0094C6.3327 81.1256 6.6863 81.1837 7.09041 81.1837ZM5.60152 71.4127L5.78337 72.4394C5.65203 72.4823 5.52701 72.5505 5.4083 72.644C5.2896 72.7349 5.19236 72.8586 5.11659 73.0152C5.04082 73.1718 5.00293 73.3676 5.00293 73.6025C5.00293 73.9232 5.07491 74.1909 5.21888 74.4056C5.36031 74.6203 5.54343 74.7277 5.76821 74.7277C5.96269 74.7277 6.11928 74.6557 6.23799 74.5117C6.3567 74.3677 6.45394 74.1354 6.52971 73.8146L6.74186 72.8902C6.86562 72.3548 7.05631 71.9557 7.31393 71.693C7.57155 71.4304 7.90621 71.299 8.31789 71.299C8.66644 71.299 8.9771 71.4001 9.24987 71.6021C9.52012 71.8016 9.73228 72.0807 9.88634 72.4394C10.0404 72.7955 10.1174 73.2084 10.1174 73.6782C10.1174 74.3299 9.97853 74.8615 9.70071 75.2732C9.42036 75.6849 9.02256 75.9375 8.50732 76.0309L8.34062 74.936C8.62603 74.8678 8.84197 74.7277 8.98846 74.5155C9.13243 74.3033 9.20441 74.0268 9.20441 73.6858C9.20441 73.3145 9.12738 73.0178 8.97331 72.7955C8.81672 72.5732 8.62603 72.4621 8.40124 72.4621C8.21939 72.4621 8.06659 72.5303 7.94283 72.6667C7.81907 72.8006 7.72562 73.0064 7.66248 73.2842L7.44653 74.2692C7.32277 74.8123 7.12577 75.2138 6.85552 75.474C6.58527 75.7316 6.24304 75.8604 5.82883 75.8604C5.48534 75.8604 5.18478 75.7644 4.92716 75.5725C4.66954 75.3805 4.46875 75.1153 4.32478 74.7769C4.17829 74.4385 4.10505 74.0508 4.10505 73.6138C4.10505 72.9849 4.24144 72.4899 4.51421 72.1287C4.78446 71.7675 5.14689 71.5289 5.60152 71.4127Z" fill="#939FAE"/>
                            <path d="M90.3248 210.743H91.2644V216.289C91.2644 216.784 91.1734 217.205 90.9916 217.551C90.8097 217.897 90.5534 218.16 90.2225 218.339C89.8916 218.518 89.5014 218.608 89.0519 218.608C88.6275 218.608 88.25 218.531 87.9191 218.377C87.5882 218.22 87.3281 217.998 87.1386 217.71C86.9492 217.422 86.8545 217.08 86.8545 216.683H87.7789C87.7789 216.903 87.8332 217.095 87.9418 217.259C88.0529 217.421 88.2045 217.547 88.3964 217.638C88.5884 217.729 88.8069 217.775 89.0519 217.775C89.3221 217.775 89.5519 217.718 89.7414 217.604C89.9308 217.49 90.0748 217.324 90.1733 217.104C90.2743 216.882 90.3248 216.61 90.3248 216.289V210.743ZM96.6293 216.123V212.683H97.5234V218.502H96.6293V217.517H96.5687C96.4323 217.812 96.2201 218.064 95.9322 218.271C95.6443 218.475 95.2806 218.578 94.8411 218.578C94.4774 218.578 94.1541 218.498 93.8713 218.339C93.5884 218.177 93.3661 217.935 93.2045 217.612C93.0428 217.286 92.962 216.875 92.962 216.38V212.683H93.8561V216.32C93.8561 216.744 93.9748 217.083 94.2122 217.335C94.4522 217.588 94.7578 217.714 95.1291 217.714C95.3513 217.714 95.5774 217.657 95.8072 217.543C96.0396 217.43 96.234 217.256 96.3906 217.021C96.5497 216.786 96.6293 216.486 96.6293 216.123ZM99.9911 210.743V218.502H99.097V210.743H99.9911ZM102.141 220.684C101.989 220.684 101.854 220.672 101.735 220.646C101.616 220.624 101.534 220.601 101.489 220.578L101.716 219.79C101.933 219.846 102.125 219.866 102.292 219.851C102.459 219.836 102.607 219.761 102.735 219.627C102.867 219.496 102.987 219.282 103.095 218.987L103.262 218.532L101.11 212.683H102.08L103.686 217.32H103.747L105.353 212.683H106.323L103.853 219.351C103.742 219.651 103.604 219.9 103.44 220.097C103.276 220.296 103.085 220.444 102.868 220.54C102.653 220.636 102.411 220.684 102.141 220.684Z" fill="#939FAE"/>
                            <path d="M137.478 218.502H136.493L139.342 210.743H140.312L143.161 218.502H142.176L139.857 211.971H139.797L137.478 218.502ZM137.842 215.471H141.812V216.305H137.842V215.471ZM147.851 216.123V212.683H148.745V218.502H147.851V217.517H147.791C147.654 217.812 147.442 218.064 147.154 218.271C146.866 218.475 146.503 218.578 146.063 218.578C145.7 218.578 145.376 218.498 145.093 218.339C144.81 218.177 144.588 217.935 144.427 217.612C144.265 217.286 144.184 216.875 144.184 216.38V212.683H145.078V216.32C145.078 216.744 145.197 217.083 145.434 217.335C145.674 217.588 145.98 217.714 146.351 217.714C146.573 217.714 146.799 217.657 147.029 217.543C147.262 217.43 147.456 217.256 147.613 217.021C147.772 216.786 147.851 216.486 147.851 216.123ZM152.668 220.805C152.236 220.805 151.865 220.75 151.554 220.639C151.243 220.53 150.985 220.386 150.777 220.207C150.573 220.03 150.41 219.841 150.289 219.639L151.001 219.138C151.082 219.245 151.184 219.366 151.308 219.502C151.432 219.641 151.601 219.761 151.816 219.862C152.033 219.966 152.317 220.017 152.668 220.017C153.138 220.017 153.525 219.904 153.831 219.676C154.137 219.449 154.289 219.093 154.289 218.608V217.426H154.214C154.148 217.532 154.055 217.663 153.933 217.82C153.815 217.974 153.643 218.112 153.418 218.233C153.196 218.352 152.895 218.411 152.516 218.411C152.047 218.411 151.625 218.3 151.251 218.078C150.88 217.855 150.586 217.532 150.368 217.108C150.154 216.683 150.046 216.168 150.046 215.562C150.046 214.966 150.151 214.447 150.361 214.005C150.57 213.56 150.862 213.217 151.236 212.974C151.61 212.729 152.042 212.607 152.532 212.607C152.91 212.607 153.211 212.67 153.433 212.796C153.658 212.92 153.83 213.062 153.948 213.221C154.07 213.377 154.163 213.506 154.229 213.607H154.32V212.683H155.184V218.669C155.184 219.169 155.07 219.575 154.843 219.889C154.618 220.204 154.315 220.435 153.933 220.582C153.554 220.731 153.133 220.805 152.668 220.805ZM152.638 217.608C152.996 217.608 153.299 217.526 153.547 217.362C153.794 217.197 153.983 216.961 154.111 216.653C154.24 216.345 154.305 215.976 154.305 215.547C154.305 215.128 154.241 214.758 154.115 214.437C153.989 214.116 153.802 213.865 153.554 213.683C153.307 213.501 153.001 213.41 152.638 213.41C152.259 213.41 151.943 213.506 151.691 213.698C151.44 213.89 151.252 214.148 151.126 214.471C151.002 214.794 150.94 215.153 150.94 215.547C150.94 215.951 151.004 216.308 151.13 216.619C151.259 216.927 151.448 217.17 151.698 217.346C151.951 217.521 152.264 217.608 152.638 217.608ZM160.423 216.123V212.683H161.318V218.502H160.423V217.517H160.363C160.226 217.812 160.014 218.064 159.726 218.271C159.438 218.475 159.075 218.578 158.635 218.578C158.272 218.578 157.948 218.498 157.665 218.339C157.383 218.177 157.16 217.935 156.999 217.612C156.837 217.286 156.756 216.875 156.756 216.38V212.683H157.65V216.32C157.65 216.744 157.769 217.083 158.006 217.335C158.246 217.588 158.552 217.714 158.923 217.714C159.145 217.714 159.372 217.657 159.601 217.543C159.834 217.43 160.028 217.256 160.185 217.021C160.344 216.786 160.423 216.486 160.423 216.123ZM167.013 213.986L166.21 214.213C166.159 214.079 166.085 213.949 165.986 213.823C165.89 213.694 165.759 213.588 165.592 213.505C165.426 213.422 165.212 213.38 164.952 213.38C164.596 213.38 164.299 213.462 164.062 213.626C163.827 213.788 163.709 213.994 163.709 214.244C163.709 214.466 163.79 214.641 163.952 214.77C164.114 214.899 164.366 215.006 164.71 215.092L165.573 215.304C166.094 215.431 166.481 215.624 166.736 215.884C166.992 216.142 167.119 216.474 167.119 216.88C167.119 217.214 167.023 217.512 166.831 217.775C166.642 218.037 166.377 218.244 166.036 218.396C165.695 218.547 165.298 218.623 164.846 218.623C164.252 218.623 163.761 218.494 163.372 218.237C162.983 217.979 162.737 217.603 162.634 217.108L163.482 216.896C163.563 217.209 163.716 217.444 163.941 217.6C164.168 217.757 164.465 217.835 164.831 217.835C165.248 217.835 165.578 217.747 165.823 217.57C166.071 217.391 166.195 217.176 166.195 216.926C166.195 216.724 166.124 216.555 165.983 216.418C165.841 216.279 165.624 216.176 165.331 216.108L164.361 215.88C163.828 215.754 163.437 215.558 163.187 215.293C162.939 215.025 162.815 214.691 162.815 214.289C162.815 213.961 162.908 213.67 163.092 213.418C163.279 213.165 163.533 212.967 163.853 212.823C164.177 212.679 164.543 212.607 164.952 212.607C165.528 212.607 165.98 212.733 166.308 212.986C166.639 213.238 166.874 213.572 167.013 213.986ZM170.932 212.683V213.44H167.916V212.683H170.932ZM168.795 211.289H169.689V216.835C169.689 217.088 169.726 217.277 169.799 217.403C169.875 217.527 169.971 217.61 170.087 217.653C170.206 217.694 170.331 217.714 170.462 217.714C170.56 217.714 170.641 217.709 170.704 217.699C170.768 217.686 170.818 217.676 170.856 217.668L171.038 218.472C170.977 218.494 170.893 218.517 170.784 218.54C170.675 218.565 170.538 218.578 170.371 218.578C170.118 218.578 169.871 218.523 169.628 218.415C169.389 218.306 169.189 218.141 169.03 217.919C168.873 217.696 168.795 217.416 168.795 217.077V211.289Z" fill="#939FAE"/>
                            <path d="M206.208 212.683C206.162 212.299 205.978 212.001 205.654 211.789C205.331 211.577 204.935 211.47 204.465 211.47C204.121 211.47 203.821 211.526 203.563 211.637C203.308 211.748 203.109 211.901 202.965 212.096C202.823 212.29 202.752 212.511 202.752 212.759C202.752 212.966 202.802 213.144 202.9 213.293C203.001 213.439 203.13 213.562 203.287 213.66C203.443 213.756 203.607 213.836 203.779 213.899C203.951 213.96 204.109 214.009 204.253 214.047L205.041 214.259C205.243 214.312 205.468 214.385 205.715 214.479C205.965 214.572 206.204 214.7 206.431 214.861C206.661 215.02 206.85 215.225 206.999 215.475C207.148 215.725 207.223 216.032 207.223 216.396C207.223 216.815 207.113 217.194 206.893 217.532C206.676 217.871 206.358 218.14 205.939 218.339C205.522 218.539 205.015 218.638 204.419 218.638C203.864 218.638 203.383 218.549 202.976 218.369C202.572 218.19 202.254 217.94 202.021 217.619C201.791 217.298 201.661 216.926 201.631 216.502H202.601C202.626 216.795 202.725 217.037 202.896 217.229C203.071 217.418 203.29 217.56 203.556 217.653C203.823 217.744 204.111 217.79 204.419 217.79C204.778 217.79 205.1 217.732 205.385 217.615C205.671 217.497 205.897 217.333 206.064 217.123C206.23 216.911 206.314 216.663 206.314 216.38C206.314 216.123 206.242 215.913 206.098 215.751C205.954 215.59 205.764 215.459 205.529 215.357C205.295 215.256 205.041 215.168 204.768 215.092L203.813 214.82C203.207 214.645 202.727 214.396 202.374 214.073C202.02 213.75 201.843 213.327 201.843 212.804C201.843 212.37 201.961 211.991 202.196 211.667C202.433 211.342 202.751 211.089 203.15 210.91C203.552 210.728 204 210.637 204.495 210.637C204.995 210.637 205.44 210.727 205.829 210.906C206.218 211.083 206.526 211.325 206.753 211.633C206.983 211.941 207.104 212.291 207.117 212.683H206.208ZM211.022 218.623C210.462 218.623 209.978 218.499 209.571 218.252C209.167 218.002 208.855 217.653 208.636 217.206C208.418 216.757 208.31 216.234 208.31 215.638C208.31 215.042 208.418 214.516 208.636 214.062C208.855 213.605 209.161 213.249 209.552 212.993C209.946 212.736 210.406 212.607 210.931 212.607C211.234 212.607 211.534 212.658 211.829 212.759C212.125 212.86 212.394 213.024 212.636 213.251C212.879 213.476 213.072 213.774 213.216 214.145C213.36 214.516 213.432 214.974 213.432 215.517V215.895H208.946V215.123H212.523C212.523 214.794 212.457 214.501 212.326 214.244C212.197 213.986 212.012 213.783 211.772 213.634C211.535 213.485 211.255 213.41 210.931 213.41C210.575 213.41 210.267 213.499 210.007 213.675C209.749 213.85 209.551 214.077 209.412 214.357C209.273 214.638 209.204 214.938 209.204 215.259V215.774C209.204 216.214 209.28 216.586 209.431 216.892C209.585 217.195 209.799 217.426 210.071 217.585C210.344 217.742 210.661 217.82 211.022 217.82C211.257 217.82 211.469 217.787 211.659 217.722C211.851 217.653 212.016 217.552 212.155 217.418C212.294 217.282 212.401 217.113 212.477 216.911L213.341 217.153C213.25 217.446 213.097 217.704 212.882 217.926C212.668 218.146 212.403 218.318 212.087 218.441C211.771 218.563 211.416 218.623 211.022 218.623ZM214.728 220.684V212.683H215.592V213.607H215.698C215.763 213.506 215.854 213.377 215.97 213.221C216.089 213.062 216.258 212.92 216.478 212.796C216.7 212.67 217.001 212.607 217.38 212.607C217.87 212.607 218.302 212.729 218.676 212.974C219.049 213.219 219.341 213.567 219.551 214.016C219.76 214.466 219.865 214.996 219.865 215.608C219.865 216.224 219.76 216.758 219.551 217.21C219.341 217.66 219.051 218.008 218.679 218.256C218.308 218.501 217.88 218.623 217.395 218.623C217.021 218.623 216.722 218.561 216.497 218.438C216.272 218.311 216.099 218.169 215.978 218.009C215.857 217.848 215.763 217.714 215.698 217.608H215.622V220.684H214.728ZM215.607 215.592C215.607 216.032 215.671 216.42 215.8 216.755C215.929 217.089 216.117 217.35 216.364 217.54C216.612 217.727 216.915 217.82 217.274 217.82C217.648 217.82 217.959 217.722 218.21 217.525C218.462 217.325 218.652 217.057 218.778 216.721C218.907 216.383 218.971 216.007 218.971 215.592C218.971 215.183 218.908 214.814 218.782 214.486C218.658 214.155 218.47 213.894 218.217 213.702C217.967 213.507 217.653 213.41 217.274 213.41C216.91 213.41 216.604 213.502 216.357 213.687C216.109 213.869 215.923 214.124 215.796 214.452C215.67 214.778 215.607 215.158 215.607 215.592ZM223.696 212.683V213.44H220.68V212.683H223.696ZM221.559 211.289H222.453V216.835C222.453 217.088 222.49 217.277 222.563 217.403C222.639 217.527 222.735 217.61 222.851 217.653C222.97 217.694 223.095 217.714 223.226 217.714C223.324 217.714 223.405 217.709 223.468 217.699C223.532 217.686 223.582 217.676 223.62 217.668L223.802 218.472C223.741 218.494 223.657 218.517 223.548 218.54C223.439 218.565 223.302 218.578 223.135 218.578C222.882 218.578 222.635 218.523 222.392 218.415C222.153 218.306 221.953 218.141 221.794 217.919C221.637 217.696 221.559 217.416 221.559 217.077V211.289ZM227.354 218.623C226.793 218.623 226.31 218.499 225.903 218.252C225.499 218.002 225.187 217.653 224.967 217.206C224.75 216.757 224.641 216.234 224.641 215.638C224.641 215.042 224.75 214.516 224.967 214.062C225.187 213.605 225.492 213.249 225.884 212.993C226.278 212.736 226.738 212.607 227.263 212.607C227.566 212.607 227.865 212.658 228.161 212.759C228.456 212.86 228.725 213.024 228.968 213.251C229.21 213.476 229.404 213.774 229.547 214.145C229.691 214.516 229.763 214.974 229.763 215.517V215.895H225.278V215.123H228.854C228.854 214.794 228.789 214.501 228.657 214.244C228.528 213.986 228.344 213.783 228.104 213.634C227.867 213.485 227.586 213.41 227.263 213.41C226.907 213.41 226.599 213.499 226.339 213.675C226.081 213.85 225.883 214.077 225.744 214.357C225.605 214.638 225.535 214.938 225.535 215.259V215.774C225.535 216.214 225.611 216.586 225.763 216.892C225.917 217.195 226.13 217.426 226.403 217.585C226.676 217.742 226.993 217.82 227.354 217.82C227.589 217.82 227.801 217.787 227.99 217.722C228.182 217.653 228.348 217.552 228.487 217.418C228.626 217.282 228.733 217.113 228.809 216.911L229.672 217.153C229.582 217.446 229.429 217.704 229.214 217.926C228.999 218.146 228.734 218.318 228.418 218.441C228.103 218.563 227.748 218.623 227.354 218.623ZM231.059 218.502V212.683H231.923V213.592H231.999C232.12 213.281 232.316 213.04 232.586 212.868C232.857 212.694 233.181 212.607 233.56 212.607C233.944 212.607 234.263 212.694 234.518 212.868C234.776 213.04 234.977 213.281 235.121 213.592H235.181C235.33 213.291 235.554 213.053 235.852 212.876C236.15 212.697 236.507 212.607 236.924 212.607C237.444 212.607 237.87 212.77 238.201 213.096C238.532 213.419 238.697 213.923 238.697 214.607V218.502H237.803V214.607C237.803 214.178 237.686 213.871 237.451 213.687C237.216 213.502 236.939 213.41 236.621 213.41C236.212 213.41 235.895 213.534 235.67 213.781C235.445 214.026 235.333 214.337 235.333 214.713V218.502H234.424V214.516C234.424 214.186 234.316 213.919 234.102 213.717C233.887 213.512 233.61 213.41 233.272 213.41C233.04 213.41 232.822 213.472 232.62 213.596C232.421 213.72 232.259 213.891 232.135 214.111C232.014 214.328 231.954 214.58 231.954 214.865V218.502H231.059ZM240.389 218.502V210.743H241.283V213.607H241.359C241.425 213.506 241.516 213.377 241.632 213.221C241.75 213.062 241.92 212.92 242.139 212.796C242.362 212.67 242.662 212.607 243.041 212.607C243.531 212.607 243.963 212.729 244.337 212.974C244.711 213.219 245.002 213.567 245.212 214.016C245.422 214.466 245.526 214.996 245.526 215.608C245.526 216.224 245.422 216.758 245.212 217.21C245.002 217.66 244.712 218.008 244.341 218.256C243.969 218.501 243.541 218.623 243.056 218.623C242.682 218.623 242.383 218.561 242.158 218.438C241.934 218.311 241.761 218.169 241.639 218.009C241.518 217.848 241.425 217.714 241.359 217.608H241.253V218.502H240.389ZM241.268 215.592C241.268 216.032 241.332 216.42 241.461 216.755C241.59 217.089 241.778 217.35 242.026 217.54C242.273 217.727 242.576 217.82 242.935 217.82C243.309 217.82 243.621 217.722 243.871 217.525C244.123 217.325 244.313 217.057 244.439 216.721C244.568 216.383 244.632 216.007 244.632 215.592C244.632 215.183 244.569 214.814 244.443 214.486C244.319 214.155 244.131 213.894 243.878 213.702C243.628 213.507 243.314 213.41 242.935 213.41C242.571 213.41 242.266 213.502 242.018 213.687C241.771 213.869 241.584 214.124 241.458 214.452C241.331 214.778 241.268 215.158 241.268 215.592ZM249.27 218.623C248.709 218.623 248.225 218.499 247.819 218.252C247.415 218.002 247.103 217.653 246.883 217.206C246.666 216.757 246.557 216.234 246.557 215.638C246.557 215.042 246.666 214.516 246.883 214.062C247.103 213.605 247.408 213.249 247.8 212.993C248.194 212.736 248.654 212.607 249.179 212.607C249.482 212.607 249.781 212.658 250.077 212.759C250.372 212.86 250.641 213.024 250.884 213.251C251.126 213.476 251.319 213.774 251.463 214.145C251.607 214.516 251.679 214.974 251.679 215.517V215.895H247.194V215.123H250.77C250.77 214.794 250.704 214.501 250.573 214.244C250.444 213.986 250.26 213.783 250.02 213.634C249.783 213.485 249.502 213.41 249.179 213.41C248.823 213.41 248.515 213.499 248.255 213.675C247.997 213.85 247.799 214.077 247.66 214.357C247.521 214.638 247.451 214.938 247.451 215.259V215.774C247.451 216.214 247.527 216.586 247.679 216.892C247.833 217.195 248.046 217.426 248.319 217.585C248.592 217.742 248.909 217.82 249.27 217.82C249.505 217.82 249.717 217.787 249.906 217.722C250.098 217.653 250.264 217.552 250.403 217.418C250.542 217.282 250.649 217.113 250.725 216.911L251.588 217.153C251.497 217.446 251.345 217.704 251.13 217.926C250.915 218.146 250.65 218.318 250.334 218.441C250.019 218.563 249.664 218.623 249.27 218.623ZM252.975 218.502V212.683H253.839V213.562H253.9C254.006 213.274 254.198 213.04 254.476 212.861C254.754 212.682 255.067 212.592 255.415 212.592C255.481 212.592 255.563 212.593 255.661 212.596C255.76 212.598 255.834 212.602 255.885 212.607V213.516C255.855 213.509 255.785 213.497 255.677 213.482C255.571 213.464 255.458 213.456 255.339 213.456C255.057 213.456 254.804 213.515 254.582 213.634C254.362 213.75 254.188 213.912 254.059 214.119C253.933 214.323 253.87 214.557 253.87 214.82V218.502H252.975Z" fill="#939FAE"/>
                            <path d="M293.316 214.622C293.316 215.441 293.168 216.148 292.873 216.744C292.577 217.34 292.172 217.8 291.657 218.123C291.142 218.446 290.553 218.608 289.891 218.608C289.23 218.608 288.641 218.446 288.126 218.123C287.611 217.8 287.205 217.34 286.91 216.744C286.614 216.148 286.467 215.441 286.467 214.622C286.467 213.804 286.614 213.097 286.91 212.501C287.205 211.905 287.611 211.445 288.126 211.122C288.641 210.799 289.23 210.637 289.891 210.637C290.553 210.637 291.142 210.799 291.657 211.122C292.172 211.445 292.577 211.905 292.873 212.501C293.168 213.097 293.316 213.804 293.316 214.622ZM292.407 214.622C292.407 213.951 292.295 213.384 292.07 212.921C291.848 212.459 291.546 212.109 291.164 211.872C290.785 211.635 290.361 211.516 289.891 211.516C289.422 211.516 288.996 211.635 288.615 211.872C288.236 212.109 287.934 212.459 287.709 212.921C287.487 213.384 287.376 213.951 287.376 214.622C287.376 215.294 287.487 215.861 287.709 216.324C287.934 216.786 288.236 217.136 288.615 217.373C288.996 217.61 289.422 217.729 289.891 217.729C290.361 217.729 290.785 217.61 291.164 217.373C291.546 217.136 291.848 216.786 292.07 216.324C292.295 215.861 292.407 215.294 292.407 214.622ZM297.075 218.623C296.529 218.623 296.06 218.494 295.665 218.237C295.271 217.979 294.968 217.624 294.756 217.172C294.544 216.72 294.438 216.204 294.438 215.623C294.438 215.032 294.547 214.51 294.764 214.058C294.984 213.603 295.289 213.249 295.681 212.993C296.075 212.736 296.534 212.607 297.06 212.607C297.469 212.607 297.838 212.683 298.166 212.834C298.494 212.986 298.763 213.198 298.973 213.471C299.183 213.744 299.313 214.062 299.363 214.425H298.469C298.401 214.16 298.249 213.925 298.014 213.721C297.782 213.514 297.469 213.41 297.075 213.41C296.726 213.41 296.421 213.501 296.158 213.683C295.898 213.862 295.695 214.116 295.548 214.444C295.404 214.77 295.332 215.153 295.332 215.592C295.332 216.042 295.403 216.433 295.544 216.767C295.688 217.1 295.89 217.359 296.15 217.543C296.413 217.728 296.721 217.82 297.075 217.82C297.307 217.82 297.518 217.78 297.708 217.699C297.897 217.618 298.057 217.502 298.189 217.35C298.32 217.199 298.413 217.017 298.469 216.805H299.363C299.313 217.148 299.188 217.458 298.988 217.733C298.791 218.006 298.53 218.223 298.204 218.385C297.881 218.544 297.504 218.623 297.075 218.623ZM303.137 212.683V213.44H300.121V212.683H303.137ZM301 211.289H301.894V216.835C301.894 217.088 301.931 217.277 302.004 217.403C302.08 217.527 302.176 217.61 302.292 217.653C302.411 217.694 302.536 217.714 302.667 217.714C302.766 217.714 302.846 217.709 302.91 217.699C302.973 217.686 303.023 217.676 303.061 217.668L303.243 218.472C303.182 218.494 303.098 218.517 302.989 218.54C302.881 218.565 302.743 218.578 302.576 218.578C302.324 218.578 302.076 218.523 301.834 218.415C301.594 218.306 301.394 218.141 301.235 217.919C301.078 217.696 301 217.416 301 217.077V211.289ZM306.719 218.623C306.194 218.623 305.733 218.498 305.337 218.248C304.942 217.998 304.634 217.648 304.412 217.199C304.192 216.749 304.082 216.224 304.082 215.623C304.082 215.017 304.192 214.487 304.412 214.035C304.634 213.583 304.942 213.232 305.337 212.982C305.733 212.732 306.194 212.607 306.719 212.607C307.245 212.607 307.704 212.732 308.098 212.982C308.495 213.232 308.803 213.583 309.023 214.035C309.245 214.487 309.356 215.017 309.356 215.623C309.356 216.224 309.245 216.749 309.023 217.199C308.803 217.648 308.495 217.998 308.098 218.248C307.704 218.498 307.245 218.623 306.719 218.623ZM306.719 217.82C307.118 217.82 307.447 217.718 307.704 217.513C307.962 217.309 308.153 217.04 308.276 216.706C308.4 216.373 308.462 216.012 308.462 215.623C308.462 215.234 308.4 214.871 308.276 214.535C308.153 214.199 307.962 213.928 307.704 213.721C307.447 213.514 307.118 213.41 306.719 213.41C306.32 213.41 305.992 213.514 305.734 213.721C305.477 213.928 305.286 214.199 305.162 214.535C305.038 214.871 304.977 215.234 304.977 215.623C304.977 216.012 305.038 216.373 305.162 216.706C305.286 217.04 305.477 217.309 305.734 217.513C305.992 217.718 306.32 217.82 306.719 217.82ZM310.778 218.502V210.743H311.672V213.607H311.748C311.814 213.506 311.905 213.377 312.021 213.221C312.14 213.062 312.309 212.92 312.528 212.796C312.751 212.67 313.051 212.607 313.43 212.607C313.92 212.607 314.352 212.729 314.726 212.974C315.1 213.219 315.391 213.567 315.601 214.016C315.811 214.466 315.915 214.996 315.915 215.608C315.915 216.224 315.811 216.758 315.601 217.21C315.391 217.66 315.101 218.008 314.73 218.256C314.358 218.501 313.93 218.623 313.445 218.623C313.071 218.623 312.772 218.561 312.547 218.438C312.323 218.311 312.15 218.169 312.028 218.009C311.907 217.848 311.814 217.714 311.748 217.608H311.642V218.502H310.778ZM311.657 215.592C311.657 216.032 311.722 216.42 311.85 216.755C311.979 217.089 312.167 217.35 312.415 217.54C312.662 217.727 312.965 217.82 313.324 217.82C313.698 217.82 314.01 217.722 314.26 217.525C314.512 217.325 314.702 217.057 314.828 216.721C314.957 216.383 315.021 216.007 315.021 215.592C315.021 215.183 314.958 214.814 314.832 214.486C314.708 214.155 314.52 213.894 314.267 213.702C314.017 213.507 313.703 213.41 313.324 213.41C312.96 213.41 312.655 213.502 312.407 213.687C312.16 213.869 311.973 214.124 311.847 214.452C311.72 214.778 311.657 215.158 311.657 215.592ZM319.659 218.623C319.098 218.623 318.615 218.499 318.208 218.252C317.804 218.002 317.492 217.653 317.272 217.206C317.055 216.757 316.946 216.234 316.946 215.638C316.946 215.042 317.055 214.516 317.272 214.062C317.492 213.605 317.797 213.249 318.189 212.993C318.583 212.736 319.043 212.607 319.568 212.607C319.871 212.607 320.17 212.658 320.466 212.759C320.761 212.86 321.03 213.024 321.273 213.251C321.515 213.476 321.708 213.774 321.852 214.145C321.996 214.516 322.068 214.974 322.068 215.517V215.895H317.583V215.123H321.159C321.159 214.794 321.093 214.501 320.962 214.244C320.833 213.986 320.649 213.783 320.409 213.634C320.172 213.485 319.891 213.41 319.568 213.41C319.212 213.41 318.904 213.499 318.644 213.675C318.386 213.85 318.188 214.077 318.049 214.357C317.91 214.638 317.84 214.938 317.84 215.259V215.774C317.84 216.214 317.916 216.586 318.068 216.892C318.222 217.195 318.435 217.426 318.708 217.585C318.981 217.742 319.298 217.82 319.659 217.82C319.894 217.82 320.106 217.787 320.295 217.722C320.487 217.653 320.653 217.552 320.792 217.418C320.931 217.282 321.038 217.113 321.114 216.911L321.977 217.153C321.887 217.446 321.734 217.704 321.519 217.926C321.304 218.146 321.039 218.318 320.723 218.441C320.408 218.563 320.053 218.623 319.659 218.623ZM323.364 218.502V212.683H324.228V213.562H324.289C324.395 213.274 324.587 213.04 324.865 212.861C325.143 212.682 325.456 212.592 325.804 212.592C325.87 212.592 325.952 212.593 326.051 212.596C326.149 212.598 326.224 212.602 326.274 212.607V213.516C326.244 213.509 326.174 213.497 326.066 213.482C325.96 213.464 325.847 213.456 325.728 213.456C325.446 213.456 325.193 213.515 324.971 213.634C324.751 213.75 324.577 213.912 324.448 214.119C324.322 214.323 324.259 214.557 324.259 214.82V218.502H323.364Z" fill="#939FAE"/>
                            <path d="M192.037 230.144H193.458L195.928 236.176H196.019L198.489 230.144H199.91V237.903H198.796V232.289H198.724L196.436 237.892H195.511L193.223 232.285H193.151V237.903H192.037V230.144ZM203.908 238.021C203.363 238.021 202.887 237.896 202.48 237.646C202.073 237.396 201.758 237.046 201.533 236.596C201.308 236.147 201.196 235.621 201.196 235.02C201.196 234.417 201.308 233.889 201.533 233.437C201.758 232.985 202.073 232.633 202.48 232.383C202.887 232.133 203.363 232.008 203.908 232.008C204.454 232.008 204.93 232.133 205.336 232.383C205.743 232.633 206.059 232.985 206.284 233.437C206.508 233.889 206.621 234.417 206.621 235.02C206.621 235.621 206.508 236.147 206.284 236.596C206.059 237.046 205.743 237.396 205.336 237.646C204.93 237.896 204.454 238.021 203.908 238.021ZM203.912 237.07C204.266 237.07 204.559 236.976 204.791 236.789C205.023 236.603 205.195 236.354 205.306 236.043C205.42 235.732 205.477 235.39 205.477 235.016C205.477 234.645 205.42 234.304 205.306 233.994C205.195 233.68 205.023 233.429 204.791 233.24C204.559 233.05 204.266 232.956 203.912 232.956C203.556 232.956 203.26 233.05 203.025 233.24C202.793 233.429 202.62 233.68 202.506 233.994C202.395 234.304 202.34 234.645 202.34 235.016C202.34 235.39 202.395 235.732 202.506 236.043C202.62 236.354 202.793 236.603 203.025 236.789C203.26 236.976 203.556 237.07 203.912 237.07ZM208.954 234.448V237.903H207.821V232.084H208.908V233.031H208.98C209.114 232.723 209.324 232.476 209.609 232.289C209.897 232.102 210.26 232.008 210.697 232.008C211.093 232.008 211.44 232.092 211.738 232.258C212.037 232.423 212.268 232.668 212.432 232.993C212.596 233.319 212.678 233.722 212.678 234.202V237.903H211.545V234.338C211.545 233.917 211.435 233.587 211.216 233.35C210.996 233.11 210.694 232.99 210.31 232.99C210.048 232.99 209.814 233.046 209.609 233.16C209.407 233.274 209.247 233.44 209.128 233.66C209.012 233.877 208.954 234.14 208.954 234.448ZM216.85 232.084V232.993H213.671V232.084H216.85ZM214.523 230.69H215.656V236.195C215.656 236.414 215.689 236.58 215.755 236.691C215.82 236.8 215.905 236.874 216.009 236.915C216.115 236.952 216.23 236.971 216.353 236.971C216.444 236.971 216.524 236.965 216.592 236.952C216.66 236.94 216.713 236.93 216.751 236.922L216.956 237.858C216.89 237.883 216.797 237.908 216.675 237.934C216.554 237.961 216.403 237.977 216.221 237.979C215.923 237.984 215.645 237.931 215.387 237.82C215.13 237.709 214.921 237.537 214.762 237.305C214.603 237.072 214.523 236.781 214.523 236.43V230.69ZM219.296 234.448V237.903H218.164V230.144H219.281V233.031H219.353C219.49 232.718 219.698 232.469 219.978 232.285C220.259 232.101 220.625 232.008 221.077 232.008C221.476 232.008 221.825 232.09 222.123 232.255C222.423 232.419 222.656 232.664 222.82 232.99C222.986 233.313 223.07 233.717 223.07 234.202V237.903H221.937V234.338C221.937 233.911 221.827 233.581 221.607 233.346C221.388 233.108 221.082 232.99 220.691 232.99C220.423 232.99 220.183 233.046 219.971 233.16C219.761 233.274 219.596 233.44 219.475 233.66C219.356 233.877 219.296 234.14 219.296 234.448Z" fill="#D3E7FF"/>
                            <path d="M21.9203 22.8205V21.8734L25.2732 16.577H26.0195V17.9712H25.546L23.1478 21.7673V21.8279H27.7433V22.8205H21.9203ZM25.599 24.3359V22.5326L25.6066 22.1007V16.577H26.7166V24.3359H25.599ZM31.7008 24.4647C31.1022 24.4622 30.5908 24.3044 30.1665 23.9912C29.7422 23.678 29.4176 23.2221 29.1928 22.6235C28.968 22.0249 28.8556 21.3039 28.8556 20.4603C28.8556 19.6192 28.968 18.9007 29.1928 18.3046C29.4201 17.7085 29.7459 17.2539 30.1703 16.9407C30.5971 16.6275 31.1073 16.471 31.7008 16.471C32.2944 16.471 32.8033 16.6288 33.2276 16.9445C33.6519 17.2577 33.9765 17.7123 34.2013 18.3084C34.4286 18.9019 34.5422 19.6192 34.5422 20.4603C34.5422 21.3064 34.4298 22.0287 34.205 22.6273C33.9803 23.2234 33.6557 23.6793 33.2314 23.995C32.8071 24.3082 32.2969 24.4647 31.7008 24.4647ZM31.7008 23.4532C32.2262 23.4532 32.6366 23.1969 32.9321 22.6841C33.2301 22.1714 33.3791 21.4301 33.3791 20.4603C33.3791 19.8162 33.311 19.2719 33.1746 18.8274C33.0407 18.3804 32.8475 18.0419 32.5949 17.8121C32.3449 17.5797 32.0468 17.4635 31.7008 17.4635C31.178 17.4635 30.7676 17.7212 30.4696 18.2364C30.1715 18.7516 30.0212 19.4929 30.0187 20.4603C30.0187 21.1068 30.0857 21.6537 30.2195 22.1007C30.3559 22.5452 30.5491 22.8824 30.7992 23.1122C31.0492 23.3396 31.3498 23.4532 31.7008 23.4532ZM38.5234 24.4647C37.9248 24.4622 37.4134 24.3044 36.9891 23.9912C36.5647 23.678 36.2402 23.2221 36.0154 22.6235C35.7906 22.0249 35.6782 21.3039 35.6782 20.4603C35.6782 19.6192 35.7906 18.9007 36.0154 18.3046C36.2427 17.7085 36.5685 17.2539 36.9929 16.9407C37.4197 16.6275 37.9299 16.471 38.5234 16.471C39.117 16.471 39.6259 16.6288 40.0502 16.9445C40.4745 17.2577 40.7991 17.7123 41.0238 18.3084C41.2512 18.9019 41.3648 19.6192 41.3648 20.4603C41.3648 21.3064 41.2524 22.0287 41.0276 22.6273C40.8028 23.2234 40.4783 23.6793 40.054 23.995C39.6297 24.3082 39.1195 24.4647 38.5234 24.4647ZM38.5234 23.4532C39.0488 23.4532 39.4592 23.1969 39.7547 22.6841C40.0527 22.1714 40.2017 21.4301 40.2017 20.4603C40.2017 19.8162 40.1335 19.2719 39.9972 18.8274C39.8633 18.3804 39.6701 18.0419 39.4175 17.8121C39.1675 17.5797 38.8694 17.4635 38.5234 17.4635C38.0006 17.4635 37.5902 17.7212 37.2921 18.2364C36.9941 18.7516 36.8438 19.4929 36.8413 20.4603C36.8413 21.1068 36.9082 21.6537 37.0421 22.1007C37.1785 22.5452 37.3717 22.8824 37.6217 23.1122C37.8718 23.3396 38.1723 23.4532 38.5234 23.4532Z" fill="#939FAE"/>
                            <path d="M24.7845 73.7145C24.2642 73.7145 23.7995 73.6248 23.3903 73.4455C22.9837 73.2662 22.6616 73.0174 22.4242 72.6992C22.1893 72.3784 22.063 72.0071 22.0454 71.5853H23.235C23.2501 71.8152 23.3272 72.0147 23.4661 72.1839C23.6075 72.3506 23.7919 72.4794 24.0192 72.5703C24.2465 72.6613 24.4991 72.7067 24.7769 72.7067C25.0825 72.7067 25.3528 72.6537 25.5876 72.5476C25.8251 72.4415 26.0107 72.2938 26.1446 72.1044C26.2784 71.9124 26.3453 71.6914 26.3453 71.4414C26.3453 71.1812 26.2784 70.9526 26.1446 70.7556C26.0132 70.5561 25.82 70.3995 25.5649 70.2859C25.3123 70.1722 25.0067 70.1154 24.6481 70.1154H23.9927V69.1607H24.6481C24.936 69.1607 25.1886 69.1089 25.4058 69.0053C25.6255 68.9018 25.7973 68.7578 25.921 68.5734C26.0448 68.3865 26.1067 68.1681 26.1067 67.918C26.1067 67.6781 26.0524 67.4697 25.9438 67.2929C25.8377 67.1136 25.6861 66.9734 25.4891 66.8724C25.2947 66.7714 25.0648 66.7209 24.7996 66.7209C24.5471 66.7209 24.3109 66.7676 24.0912 66.861C23.874 66.952 23.6972 67.0833 23.5608 67.255C23.4244 67.4243 23.3511 67.6276 23.341 67.865H22.2083C22.2209 67.4457 22.3447 67.077 22.5796 66.7587C22.817 66.4405 23.1302 66.1917 23.5191 66.0124C23.9081 65.8331 24.34 65.7434 24.8148 65.7434C25.3123 65.7434 25.7417 65.8407 26.1029 66.0351C26.4666 66.2271 26.7469 66.4834 26.9439 66.8042C27.1435 67.125 27.242 67.476 27.2394 67.8574C27.242 68.2918 27.1207 68.6606 26.8757 68.9637C26.6333 69.2667 26.31 69.4701 25.9059 69.5736V69.6342C26.4211 69.7125 26.8202 69.9171 27.1031 70.248C27.3885 70.5788 27.5299 70.9893 27.5274 71.4792C27.5299 71.9061 27.4112 72.2887 27.1712 72.6272C26.9338 72.9656 26.6093 73.2321 26.1976 73.4265C25.7859 73.6185 25.3149 73.7145 24.7845 73.7145ZM31.5966 73.7372C30.9981 73.7347 30.4866 73.5768 30.0623 73.2636C29.638 72.9505 29.3134 72.4946 29.0886 71.896C28.8639 71.2974 28.7515 70.5763 28.7515 69.7327C28.7515 68.8917 28.8639 68.1731 29.0886 67.5771C29.316 66.981 29.6418 66.5264 30.0661 66.2132C30.4929 65.9 31.0031 65.7434 31.5966 65.7434C32.1902 65.7434 32.6991 65.9013 33.1234 66.217C33.5477 66.5302 33.8723 66.9848 34.0971 67.5808C34.3244 68.1744 34.438 68.8917 34.438 69.7327C34.438 70.5788 34.3256 71.3012 34.1009 71.8998C33.8761 72.4958 33.5515 72.9517 33.1272 73.2674C32.7029 73.5806 32.1927 73.7372 31.5966 73.7372ZM31.5966 72.7257C32.122 72.7257 32.5324 72.4693 32.8279 71.9566C33.1259 71.4439 33.275 70.7026 33.275 69.7327C33.275 69.0887 33.2068 68.5444 33.0704 68.0999C32.9365 67.6528 32.7433 67.3144 32.4907 67.0846C32.2407 66.8522 31.9427 66.736 31.5966 66.736C31.0738 66.736 30.6634 66.9936 30.3654 67.5089C30.0673 68.0241 29.9171 68.7654 29.9145 69.7327C29.9145 70.3793 29.9815 70.9261 30.1153 71.3732C30.2517 71.8177 30.4449 72.1549 30.695 72.3847C30.945 72.612 31.2456 72.7257 31.5966 72.7257ZM38.4192 73.7372C37.8206 73.7347 37.3092 73.5768 36.8849 73.2636C36.4606 72.9505 36.136 72.4946 35.9112 71.896C35.6864 71.2974 35.574 70.5763 35.574 69.7327C35.574 68.8917 35.6864 68.1731 35.9112 67.5771C36.1385 66.981 36.4644 66.5264 36.8887 66.2132C37.3155 65.9 37.8257 65.7434 38.4192 65.7434C39.0128 65.7434 39.5217 65.9013 39.946 66.217C40.3703 66.5302 40.6949 66.9848 40.9197 67.5808C41.147 68.1744 41.2606 68.8917 41.2606 69.7327C41.2606 70.5788 41.1482 71.3012 40.9235 71.8998C40.6987 72.4958 40.3741 72.9517 39.9498 73.2674C39.5255 73.5806 39.0153 73.7372 38.4192 73.7372ZM38.4192 72.7257C38.9446 72.7257 39.355 72.4693 39.6505 71.9566C39.9485 71.4439 40.0976 70.7026 40.0976 69.7327C40.0976 69.0887 40.0294 68.5444 39.893 68.0999C39.7591 67.6528 39.5659 67.3144 39.3133 67.0846C39.0633 66.8522 38.7653 66.736 38.4192 66.736C37.8964 66.736 37.486 66.9936 37.188 67.5089C36.8899 68.0241 36.7397 68.7654 36.7371 69.7327C36.7371 70.3793 36.8041 70.9261 36.9379 71.3732C37.0743 71.8177 37.2675 72.1549 37.5176 72.3847C37.7676 72.612 38.0682 72.7257 38.4192 72.7257Z" fill="#939FAE"/>
                            <path d="M22.0833 122.882V122.033L24.7087 119.313C24.9891 119.018 25.2202 118.759 25.402 118.536C25.5864 118.312 25.724 118.098 25.815 117.896C25.9059 117.694 25.9513 117.479 25.9513 117.252C25.9513 116.994 25.8907 116.772 25.7695 116.585C25.6483 116.396 25.4828 116.251 25.2732 116.15C25.0636 116.046 24.8274 115.994 24.5647 115.994C24.2869 115.994 24.0444 116.051 23.8373 116.165C23.6302 116.278 23.4711 116.439 23.36 116.646C23.2489 116.853 23.1933 117.095 23.1933 117.373H22.0757C22.0757 116.901 22.1843 116.488 22.4015 116.134C22.6187 115.781 22.9167 115.507 23.2956 115.312C23.6744 115.115 24.1051 115.017 24.5875 115.017C25.0749 115.017 25.5043 115.114 25.8756 115.309C26.2494 115.501 26.5411 115.763 26.7507 116.097C26.9604 116.427 27.0652 116.801 27.0652 117.218C27.0652 117.506 27.0109 117.788 26.9023 118.063C26.7962 118.338 26.6105 118.645 26.3453 118.983C26.0802 119.319 25.7114 119.727 25.2391 120.207L23.6972 121.821V121.878H27.1902V122.882H22.0833ZM31.2633 123.011C30.6647 123.008 30.1532 122.85 29.7289 122.537C29.3046 122.224 28.98 121.768 28.7552 121.169C28.5305 120.571 28.4181 119.85 28.4181 119.006C28.4181 118.165 28.5305 117.447 28.7552 116.85C28.9826 116.254 29.3084 115.8 29.7327 115.487C30.1595 115.173 30.6697 115.017 31.2633 115.017C31.8568 115.017 32.3657 115.175 32.79 115.49C33.2143 115.804 33.5389 116.258 33.7637 116.854C33.991 117.448 34.1047 118.165 34.1047 119.006C34.1047 119.852 33.9923 120.575 33.7675 121.173C33.5427 121.769 33.2181 122.225 32.7938 122.541C32.3695 122.854 31.8593 123.011 31.2633 123.011ZM31.2633 121.999C31.7886 121.999 32.199 121.743 32.4945 121.23C32.7926 120.717 32.9416 119.976 32.9416 119.006C32.9416 118.362 32.8734 117.818 32.737 117.373C32.6031 116.926 32.4099 116.588 32.1573 116.358C31.9073 116.126 31.6093 116.009 31.2633 116.009C30.7404 116.009 30.33 116.267 30.032 116.782C29.734 117.298 29.5837 118.039 29.5811 119.006C29.5811 119.653 29.6481 120.2 29.7819 120.647C29.9183 121.091 30.1115 121.428 30.3616 121.658C30.6116 121.885 30.9122 121.999 31.2633 121.999ZM38.0858 123.011C37.4873 123.008 36.9758 122.85 36.5515 122.537C36.1272 122.224 35.8026 121.768 35.5778 121.169C35.3531 120.571 35.2407 119.85 35.2407 119.006C35.2407 118.165 35.3531 117.447 35.5778 116.85C35.8051 116.254 36.131 115.8 36.5553 115.487C36.9821 115.173 37.4923 115.017 38.0858 115.017C38.6794 115.017 39.1883 115.175 39.6126 115.49C40.0369 115.804 40.3615 116.258 40.5863 116.854C40.8136 117.448 40.9272 118.165 40.9272 119.006C40.9272 119.852 40.8148 120.575 40.5901 121.173C40.3653 121.769 40.0407 122.225 39.6164 122.541C39.1921 122.854 38.6819 123.011 38.0858 123.011ZM38.0858 121.999C38.6112 121.999 39.0216 121.743 39.3171 121.23C39.6151 120.717 39.7642 119.976 39.7642 119.006C39.7642 118.362 39.696 117.818 39.5596 117.373C39.4257 116.926 39.2325 116.588 38.9799 116.358C38.7299 116.126 38.4319 116.009 38.0858 116.009C37.563 116.009 37.1526 116.267 36.8546 116.782C36.5565 117.298 36.4063 118.039 36.4037 119.006C36.4037 119.653 36.4707 120.2 36.6045 120.647C36.7409 121.091 36.9341 121.428 37.1842 121.658C37.4342 121.885 37.7348 121.999 38.0858 121.999Z" fill="#939FAE"/>
                            <path d="M25.0269 164.395V172.154H23.8525V165.57H23.807L21.9507 166.782V165.661L23.8866 164.395H25.0269ZM29.763 172.283C29.1644 172.281 28.653 172.123 28.2286 171.81C27.8043 171.496 27.4798 171.04 27.255 170.442C27.0302 169.843 26.9178 169.122 26.9178 168.279C26.9178 167.438 27.0302 166.719 27.255 166.123C27.4823 165.527 27.8081 165.072 28.2324 164.759C28.6593 164.446 29.1695 164.289 29.763 164.289C30.3565 164.289 30.8655 164.447 31.2898 164.763C31.7141 165.076 32.0386 165.531 32.2634 166.127C32.4907 166.72 32.6044 167.438 32.6044 168.279C32.6044 169.125 32.492 169.847 32.2672 170.446C32.0424 171.042 31.7179 171.498 31.2936 171.813C30.8692 172.127 30.3591 172.283 29.763 172.283ZM29.763 171.272C30.2883 171.272 30.6988 171.015 30.9943 170.502C31.2923 169.99 31.4413 169.248 31.4413 168.279C31.4413 167.635 31.3731 167.09 31.2367 166.646C31.1029 166.199 30.9097 165.86 30.6571 165.63C30.407 165.398 30.109 165.282 29.763 165.282C29.2402 165.282 28.8298 165.54 28.5317 166.055C28.2337 166.57 28.0834 167.311 28.0809 168.279C28.0809 168.925 28.1478 169.472 28.2817 169.919C28.4181 170.364 28.6113 170.701 28.8613 170.931C29.1114 171.158 29.4119 171.272 29.763 171.272ZM36.5856 172.283C35.987 172.281 35.4755 172.123 35.0512 171.81C34.6269 171.496 34.3024 171.04 34.0776 170.442C33.8528 169.843 33.7404 169.122 33.7404 168.279C33.7404 167.438 33.8528 166.719 34.0776 166.123C34.3049 165.527 34.6307 165.072 35.055 164.759C35.4819 164.446 35.992 164.289 36.5856 164.289C37.1791 164.289 37.688 164.447 38.1124 164.763C38.5367 165.076 38.8612 165.531 39.086 166.127C39.3133 166.72 39.427 167.438 39.427 168.279C39.427 169.125 39.3146 169.847 39.0898 170.446C38.865 171.042 38.5405 171.498 38.1162 171.813C37.6918 172.127 37.1816 172.283 36.5856 172.283ZM36.5856 171.272C37.1109 171.272 37.5214 171.015 37.8169 170.502C38.1149 169.99 38.2639 169.248 38.2639 168.279C38.2639 167.635 38.1957 167.09 38.0593 166.646C37.9255 166.199 37.7322 165.86 37.4797 165.63C37.2296 165.398 36.9316 165.282 36.5856 165.282C36.0628 165.282 35.6523 165.54 35.3543 166.055C35.0563 166.57 34.906 167.311 34.9035 168.279C34.9035 168.925 34.9704 169.472 35.1043 169.919C35.2407 170.364 35.4339 170.701 35.6839 170.931C35.934 171.158 36.2345 171.272 36.5856 171.272Z" fill="#939FAE"/>
                            <path d="M40.1883 221.557C39.5897 221.554 39.0782 221.396 38.6539 221.083C38.2296 220.77 37.9051 220.314 37.6803 219.715C37.4555 219.117 37.3431 218.396 37.3431 217.552C37.3431 216.711 37.4555 215.992 37.6803 215.396C37.9076 214.8 38.2334 214.346 38.6577 214.033C39.0846 213.719 39.5947 213.563 40.1883 213.563C40.7818 213.563 41.2907 213.721 41.7151 214.036C42.1394 214.349 42.4639 214.804 42.6887 215.4C42.916 215.994 43.0297 216.711 43.0297 217.552C43.0297 218.398 42.9173 219.121 42.6925 219.719C42.4677 220.315 42.1432 220.771 41.7189 221.087C41.2945 221.4 40.7843 221.557 40.1883 221.557ZM40.1883 220.545C40.7136 220.545 41.1241 220.289 41.4196 219.776C41.7176 219.263 41.8666 218.522 41.8666 217.552C41.8666 216.908 41.7984 216.364 41.662 215.919C41.5282 215.472 41.3349 215.134 41.0824 214.904C40.8323 214.672 40.5343 214.555 40.1883 214.555C39.6655 214.555 39.255 214.813 38.957 215.328C38.659 215.843 38.5087 216.585 38.5062 217.552C38.5062 218.199 38.5731 218.745 38.707 219.193C38.8434 219.637 39.0366 219.974 39.2866 220.204C39.5367 220.431 39.8372 220.545 40.1883 220.545Z" fill="#939FAE"/>
                            <g filter="url(#filter0_d_381_480)">
                            <path d="M53.3423 122.621L92.8157 77.8132L135.49 86.348L208.569 66.6113L250.71 45.2743L291.783 38.3397L332.324 1" stroke="#E9067C" stroke-width="1.06685"/>
                            </g>
                            <g filter="url(#filter1_d_381_480)">
                            <path d="M57.6099 160.494L98.6836 170.629L136.557 125.822L173.363 103.951L213.903 110.886L246.442 90.082L284.849 148.225L321.655 103.951" stroke="#94D0FE" stroke-width="1.06685"/>
                            </g>
                            <defs>
                            <filter id="filter0_d_381_480" x="48.6745" y="0.607422" width="288.277" height="130.901" filterUnits="userSpaceOnUse" color-interpolation-filters="sRGB">
                            <feFlood flood-opacity="0" result="BackgroundImageFix"/>
                            <feColorMatrix in="SourceAlpha" type="matrix" values="0 0 0 0 0 0 0 0 0 0 0 0 0 0 0 0 0 0 127 0" result="hardAlpha"/>
                            <feOffset dy="4.2674"/>
                            <feGaussianBlur stdDeviation="2.1337"/>
                            <feComposite in2="hardAlpha" operator="out"/>
                            <feColorMatrix type="matrix" values="0 0 0 0 0.913725 0 0 0 0 0.0235294 0 0 0 0 0.486275 0 0 0 0.2 0"/>
                            <feBlend mode="normal" in2="BackgroundImageFix" result="effect1_dropShadow_381_480"/>
                            <feBlend mode="normal" in="SourceGraphic" in2="effect1_dropShadow_381_480" result="shape"/>
                            </filter>
                            <filter id="filter1_d_381_480" x="53.2145" y="89.3496" width="273.118" height="90.4118" filterUnits="userSpaceOnUse" color-interpolation-filters="sRGB">
                            <feFlood flood-opacity="0" result="BackgroundImageFix"/>
                            <feColorMatrix in="SourceAlpha" type="matrix" values="0 0 0 0 0 0 0 0 0 0 0 0 0 0 0 0 0 0 127 0" result="hardAlpha"/>
                            <feOffset dy="4.2674"/>
                            <feGaussianBlur stdDeviation="2.1337"/>
                            <feComposite in2="hardAlpha" operator="out"/>
                            <feColorMatrix type="matrix" values="0 0 0 0 0.584314 0 0 0 0 0.819608 0 0 0 0 0.992157 0 0 0 0.2 0"/>
                            <feBlend mode="normal" in2="BackgroundImageFix" result="effect1_dropShadow_381_480"/>
                            <feBlend mode="normal" in="SourceGraphic" in2="effect1_dropShadow_381_480" result="shape"/>
                            </filter>
                            </defs>
                            </svg>