<svg width="18" height="18" viewBox="0 0 18 18" fill="none" xmlns="http://www.w3.org/2000/svg">
                <path fill-rule="evenodd" clip-rule="evenodd" d="M2.07141 2.93596C2.07141 2.54316 2.38984 2.22473 2.78264 2.22473H7.76128C8.15408 2.22473 8.47251 2.54316 8.47251 2.93596V9.33706C8.47251 9.72987 8.15408 10.0483 7.76128 10.0483H2.78264C2.38984 10.0483 2.07141 9.72987 2.07141 9.33706V2.93596ZM3.49388 3.6472V8.62583H7.05004V3.6472H3.49388Z" fill="#D3E7FF"/>
                <path fill-rule="evenodd" clip-rule="evenodd" d="M9.89563 2.93596C9.89563 2.54316 10.2141 2.22473 10.6069 2.22473H15.5855C15.9783 2.22473 16.2967 2.54316 16.2967 2.93596V6.49213C16.2967 6.88493 15.9783 7.20336 15.5855 7.20336H10.6069C10.2141 7.20336 9.89563 6.88493 9.89563 6.49213V2.93596ZM11.3181 3.6472V5.7809H14.8743V3.6472H11.3181Z" fill="#D3E7FF"/>
                <path fill-rule="evenodd" clip-rule="evenodd" d="M9.89563 9.33709C9.89563 8.94428 10.2141 8.62585 10.6069 8.62585H15.5855C15.9783 8.62585 16.2967 8.94428 16.2967 9.33709V15.7382C16.2967 16.131 15.9783 16.4494 15.5855 16.4494H10.6069C10.2141 16.4494 9.89563 16.131 9.89563 15.7382V9.33709ZM11.3181 10.0483V15.027H14.8743V10.0483H11.3181Z" fill="#D3E7FF"/>
                <path fill-rule="evenodd" clip-rule="evenodd" d="M2.07141 12.1819C2.07141 11.7891 2.38984 11.4707 2.78264 11.4707H7.76128C8.15408 11.4707 8.47251 11.7891 8.47251 12.1819V15.7381C8.47251 16.1309 8.15408 16.4493 7.76128 16.4493H2.78264C2.38984 16.4493 2.07141 16.1309 2.07141 15.7381V12.1819ZM3.49388 12.8932V15.0269H7.05004V12.8932H3.49388Z" fill="#D3E7FF"/>
                </svg>  