<svg width="18" height="18" viewBox="0 0 18 18" fill="none" xmlns="http://www.w3.org/2000/svg">
                        <path fill-rule="evenodd" clip-rule="evenodd" d="M7.10718 9.33702C7.10718 8.55141 7.74404 7.91455 8.52964 7.91455C9.31525 7.91455 9.95211 8.55141 9.95211 9.33702C9.95211 10.1226 9.31525 10.7595 8.52964 10.7595C7.74404 10.7595 7.10718 10.1226 7.10718 9.33702Z" fill="#D3E7FF"/>
                        <path fill-rule="evenodd" clip-rule="evenodd" d="M12.0851 9.33702C12.0851 8.55141 12.7219 7.91455 13.5075 7.91455C14.2932 7.91455 14.93 8.55141 14.93 9.33702C14.93 10.1226 14.2932 10.7595 13.5075 10.7595C12.7219 10.7595 12.0851 10.1226 12.0851 9.33702Z" fill="#D3E7FF"/>
                        <path fill-rule="evenodd" clip-rule="evenodd" d="M2.12817 9.33702C2.12817 8.55141 2.76503 7.91455 3.55064 7.91455C4.33625 7.91455 4.97311 8.55141 4.97311 9.33702C4.97311 10.1226 4.33625 10.7595 3.55064 10.7595C2.76503 10.7595 2.12817 10.1226 2.12817 9.33702Z" fill="#D3E7FF"/>
                    </svg>